<svg xmlns="http://www.w3.org/2000/svg" xmlns:xlink="http://www.w3.org/1999/xlink" width="659" height="171" viewBox="0 0 659 171"><defs><style>.a{opacity:0.48;fill:url(#a);}.b,.c,.d,.e{fill:#fff;}.b{font-size:48px;font-family:Poppins-Bold, Poppins;font-weight:700;}.c{opacity:0.5;}.d{opacity:0.7;}.f{filter:url(#b);}</style><linearGradient id="a" x1="0.254" y1="-0.386" x2="1.286" y2="3.421" gradientUnits="objectBoundingBox"><stop offset="0" stop-color="#db6c36"/><stop offset="1" stop-color="#6e361b"/></linearGradient><filter id="b" x="0" y="0" width="659" height="171" filterUnits="userSpaceOnUse"><feOffset dy="10" input="SourceAlpha"/><feGaussianBlur stdDeviation="10" result="c"/><feFlood flood-color="#da6838" flood-opacity="0.169"/><feComposite operator="in" in2="c"/><feComposite in="SourceGraphic"/></filter></defs><g transform="translate(-121 -601)"><g class="f" transform="matrix(1, 0, 0, 1, 121, 601)"><rect class="a" width="599" height="111" rx="55.5" transform="translate(30 20)"/></g><text class="b" transform="translate(213 693)"><tspan x="0" y="0">Almost Set</tspan></text><path class="c" d="M17.3,9.008a6,6,0,0,1,10.394,0L39.809,30a6,6,0,0,1-5.2,9H10.388a6,6,0,0,1-5.2-9Z" transform="translate(618 657) rotate(90)"/><path class="d" d="M17.3,9.008a6,6,0,0,1,10.394,0L39.809,30a6,6,0,0,1-5.2,9H10.388a6,6,0,0,1-5.2-9Z" transform="translate(672 657) rotate(90)"/><path class="e" d="M17.3,9.008a6,6,0,0,1,10.394,0L39.809,30a6,6,0,0,1-5.2,9H10.388a6,6,0,0,1-5.2-9Z" transform="translate(726 657) rotate(90)"/></g></svg>