<svg width="151" height="37" viewBox="0 0 151 37" fill="none" xmlns="http://www.w3.org/2000/svg">
<path d="M147.992 12.9158C148.904 13.4423 149.662 14.1998 150.189 15.1121C150.716 16.0244 150.993 17.0593 150.993 18.1128C150.993 19.1664 150.716 20.2013 150.189 21.1136C149.662 22.0259 148.904 22.7834 147.992 23.3098L127 35.4248C126.088 35.9516 125.053 36.2289 123.999 36.2287C122.945 36.2285 121.911 35.951 120.998 35.4239C120.086 34.8968 119.329 34.1388 118.802 33.2262C118.276 32.3135 117.999 31.2784 118 30.2248V6.00385C117.999 4.9503 118.276 3.91515 118.802 3.0025C119.329 2.08985 120.086 1.33188 120.998 0.80481C121.911 0.277744 122.945 0.000168821 123.999 7.6983e-08C125.053 -0.000168667 126.088 0.277075 127 0.803848L147.992 12.9158Z" fill="white"/>
<path opacity="0.7" d="M88.9919 12.9158C89.9045 13.4423 90.6623 14.1998 91.1891 15.1121C91.716 16.0244 91.9934 17.0593 91.9934 18.1128C91.9934 19.1664 91.716 20.2013 91.1891 21.1136C90.6623 22.0259 89.9045 22.7834 88.9919 23.3098L67.9999 35.4248C67.0875 35.9516 66.0525 36.2289 64.999 36.2287C63.9454 36.2285 62.9105 35.951 61.9983 35.4239C61.086 34.8968 60.3287 34.1388 59.8023 33.2262C59.276 32.3135 58.9993 31.2784 58.9999 30.2248V6.00385C58.9993 4.9503 59.276 3.91515 59.8023 3.0025C60.3287 2.08985 61.086 1.33188 61.9983 0.80481C62.9105 0.277744 63.9454 0.000168821 64.999 7.6983e-08C66.0525 -0.000168667 67.0875 0.277075 67.9999 0.803848L88.9919 12.9158Z" fill="white"/>
<path opacity="0.5" d="M29.9919 12.9158C30.9045 13.4423 31.6623 14.1998 32.1891 15.1121C32.716 16.0244 32.9934 17.0593 32.9934 18.1128C32.9934 19.1664 32.716 20.2013 32.1891 21.1136C31.6623 22.0259 30.9045 22.7834 29.9919 23.3098L8.99994 35.4248C8.08754 35.9516 7.05252 36.2289 5.99898 36.2287C4.94543 36.2285 3.9105 35.951 2.99827 35.4239C2.08604 34.8968 1.32868 34.1388 0.802341 33.2262C0.276007 32.3135 -0.00073676 31.2784 -6.10352e-05 30.2248V6.00385C-0.00073676 4.9503 0.276007 3.91515 0.802341 3.0025C1.32868 2.08985 2.08604 1.33188 2.99827 0.80481C3.9105 0.277744 4.94543 0.000168821 5.99898 7.6983e-08C7.05252 -0.000168667 8.08754 0.277075 8.99994 0.803848L29.9919 12.9158Z" fill="white"/>
</svg>
