<svg width="31" height="30" viewBox="0 0 31 30" fill="none" xmlns="http://www.w3.org/2000/svg">
<path d="M14.693 0.339495C14.3977 0.119083 14.0392 0 13.6707 0C13.3023 0 12.9437 0.119083 12.6484 0.339495L0.539234 9.37887C-0.48607 10.1437 0.0554424 11.7728 1.33365 11.7728H26.0085C27.2875 11.7728 27.8283 10.1437 26.8037 9.37887L14.693 0.339495ZM13.6707 7.59636C13.2679 7.59636 12.8815 7.43633 12.5966 7.15147C12.3118 6.86661 12.1517 6.48025 12.1517 6.0774C12.1517 5.67454 12.3118 5.28818 12.5966 5.00332C12.8815 4.71846 13.2679 4.55843 13.6707 4.55843C14.0736 4.55843 14.4599 4.71846 14.7448 5.00332C15.0296 5.28818 15.1897 5.67454 15.1897 6.0774C15.1897 6.48025 15.0296 6.86661 14.7448 7.15147C14.4599 7.43633 14.0736 7.59636 13.6707 7.59636ZM0 26.0123C0 23.8098 1.78479 22.025 3.98729 22.025H13.0191C12.4484 23.0048 12.149 24.119 12.1517 25.2528C12.1517 26.2781 12.391 27.2465 12.814 28.1009H0.949355C0.425311 28.1009 0 27.6756 0 27.1516V26.0123ZM15.1897 19.8256C16.1078 19.2764 17.1578 18.9869 18.2276 18.9879V13.2917H15.1897V19.8256ZM21.2656 18.9879H24.3035V13.2917H21.2656V18.9879ZM6.07587 20.5068H3.03794V13.2917H6.07587V20.5068ZM9.11381 13.2917V20.5068H12.1517V13.2917H9.11381ZM18.4175 20.5068C17.7891 20.4989 17.1654 20.6158 16.5826 20.8507C15.9998 21.0857 15.4694 21.4341 15.0223 21.8756C14.5751 22.3171 14.2201 22.843 13.9778 23.4229C13.7354 24.0027 13.6107 24.6248 13.6107 25.2532C13.6107 25.8816 13.7354 26.5038 13.9778 27.0836C14.2201 27.6634 14.5751 28.1893 15.0223 28.6309C15.4694 29.0724 15.9998 29.4207 16.5826 29.6557C17.1654 29.8907 17.7891 30.0076 18.4175 29.9996H19.5567C19.8085 29.9996 20.05 29.8996 20.228 29.7216C20.406 29.5435 20.5061 29.3021 20.5061 29.0503C20.5061 28.7985 20.406 28.557 20.228 28.379C20.05 28.2009 19.8085 28.1009 19.5567 28.1009H18.4175C17.6621 28.1009 16.9377 27.8008 16.4036 27.2667C15.8695 26.7326 15.5694 26.0082 15.5694 25.2528C15.5694 24.4975 15.8695 23.7731 16.4036 23.239C16.9377 22.7048 17.6621 22.4048 18.4175 22.4048H19.5567C19.8085 22.4048 20.05 22.3048 20.228 22.1267C20.406 21.9487 20.5061 21.7072 20.5061 21.4554C20.5061 21.2036 20.406 20.9622 20.228 20.7841C20.05 20.6061 19.8085 20.5061 19.5567 20.5061H18.4175V20.5068ZM25.6326 20.5068C26.2609 20.4989 26.8846 20.6158 27.4674 20.8507C28.0503 21.0857 28.5807 21.4341 29.0278 21.8756C29.475 22.3171 29.83 22.843 30.0723 23.4229C30.3146 24.0027 30.4394 24.6248 30.4394 25.2532C30.4394 25.8816 30.3146 26.5038 30.0723 27.0836C29.83 27.6634 29.475 28.1893 29.0278 28.6309C28.5807 29.0724 28.0503 29.4207 27.4674 29.6557C26.8846 29.8907 26.2609 30.0076 25.6326 29.9996H24.4934C24.2416 29.9996 24.0001 29.8996 23.8221 29.7216C23.644 29.5435 23.544 29.3021 23.544 29.0503C23.544 28.7985 23.644 28.557 23.8221 28.379C24.0001 28.2009 24.2416 28.1009 24.4934 28.1009H25.6326C26.3879 28.1009 27.1124 27.8008 27.6465 27.2667C28.1806 26.7326 28.4806 26.0082 28.4806 25.2528C28.4806 24.4975 28.1806 23.7731 27.6465 23.239C27.1124 22.7048 26.3879 22.4048 25.6326 22.4048H24.4934C24.2416 22.4048 24.0001 22.3048 23.8221 22.1267C23.644 21.9487 23.544 21.7072 23.544 21.4554C23.544 21.2036 23.644 20.9622 23.8221 20.7841C24.0001 20.6061 24.2416 20.5061 24.4934 20.5061H25.6326V20.5068ZM17.4681 25.2528C17.4681 24.728 17.8934 24.3035 18.4175 24.3035H25.6326C25.8844 24.3035 26.1258 24.4035 26.3039 24.5816C26.4819 24.7596 26.5819 25.0011 26.5819 25.2528C26.5819 25.5046 26.4819 25.7461 26.3039 25.9241C26.1258 26.1022 25.8844 26.2022 25.6326 26.2022H18.4175C17.8934 26.2022 17.4681 25.7769 17.4681 25.2528Z" fill="#DD7949"/>
</svg>
