<svg xmlns="http://www.w3.org/2000/svg" width="99.796" height="99.796" viewBox="0 0 99.796 99.796"><defs><style>.a{fill:rgba(0,0,0,0);}.b{fill-rule:evenodd;}</style></defs><g transform="translate(0 -2.374)"><g transform="translate(0)"><rect class="a" width="99.796" height="99.796" transform="translate(0 2.374)"/><g transform="translate(27.955 6.488)"><path class="b" d="M500.6,491.805l-18,3.6a1.5,1.5,0,0,1-1.756-1.787l10.223-47.026a1.5,1.5,0,0,1,1.462-1.178h20.446a1.5,1.5,0,0,1,1.356,2.13l-13.116,28.107,21.744-3.511a1.5,1.5,0,0,1,1.538,2.22L491.78,531.485a1.5,1.5,0,0,1-2.732-1.174Zm10.021-43.4H493.733l-9.481,43.614,18.2-3.641a1.5,1.5,0,0,1,1.728,1.9l-8.522,28.406L520.337,475.6,498.9,479.059a1.5,1.5,0,0,1-1.595-2.112Z" transform="translate(-480.807 -445.415)"/></g></g></g></svg>