<svg width="200" height="200" viewBox="0 0 200 200" fill="none" xmlns="http://www.w3.org/2000/svg">
<path d="M100 200C155.228 200 200 155.228 200 100C200 44.7715 155.228 0 100 0C44.7715 0 0 44.7715 0 100C0 155.228 44.7715 200 100 200Z" fill="white"/>
<path d="M100 199.5C154.952 199.5 199.5 154.952 199.5 100C199.5 45.0477 154.952 0.5 100 0.5C45.0477 0.5 0.5 45.0477 0.5 100C0.5 154.952 45.0477 199.5 100 199.5Z" stroke="#707070"/>
<g clip-path="url(#clip0)">
<path fill-rule="evenodd" clip-rule="evenodd" d="M99.7148 50C96.2596 49.9998 92.8228 50.501 89.5116 51.4878C89.2121 51.577 88.9331 51.7243 88.6904 51.9212C88.4478 52.1182 88.2464 52.3611 88.0976 52.6359C87.9489 52.9107 87.8557 53.2122 87.8234 53.523C87.7912 53.8339 87.8205 54.148 87.9096 54.4475C87.9987 54.7471 88.146 55.0261 88.343 55.2687C88.54 55.5113 88.7828 55.7128 89.0577 55.8615C89.3325 56.0103 89.6339 56.1034 89.9448 56.1357C90.2556 56.168 90.5698 56.1387 90.8693 56.0496C95.4895 54.6734 100.367 54.3951 105.114 55.237C109.861 56.0788 114.346 58.0175 118.211 60.8987C122.076 63.7798 125.215 67.5237 127.378 71.8322C129.54 76.1407 130.667 80.8947 130.668 85.7156C130.668 94.6448 127.479 99.8843 123.436 105.087C119.68 109.916 115.052 114.592 112.342 121.433H87.0918C84.3816 114.593 79.7559 109.916 75.998 105.087C71.9509 99.8832 68.7654 94.6437 68.7654 85.7156C68.7644 82.7203 69.1984 79.7407 70.0539 76.8701C70.143 76.5701 70.1722 76.2555 70.1397 75.9442C70.1073 75.633 70.0139 75.3311 69.8648 75.056C69.7157 74.7808 69.5138 74.5377 69.2708 74.3405C69.0277 74.1434 68.7482 73.996 68.4482 73.9068C68.1482 73.8177 67.8336 73.7885 67.5223 73.821C67.211 73.8534 66.9092 73.9468 66.634 74.0959C66.3589 74.245 66.1158 74.4469 65.9186 74.6899C65.7214 74.933 65.5741 75.2125 65.4849 75.5125C64.498 78.8236 63.9969 82.2605 63.9971 85.7156C63.9971 95.8351 67.9512 102.5 72.2381 108.012C75.9877 112.833 79.8716 116.882 82.246 122.198C80.9903 122.819 79.9459 123.797 79.2436 125.009C78.5414 126.221 78.2126 127.613 78.2984 129.011C78.3842 130.41 78.8809 131.751 79.7262 132.868C80.5714 133.986 81.7276 134.828 83.0498 135.291V142.857C83.0596 144.749 83.8153 146.56 85.1527 147.897C86.4901 149.235 88.3012 149.99 90.1925 150H109.239C111.13 149.99 112.942 149.235 114.279 147.897C115.616 146.56 116.372 144.749 116.382 142.857V135.293C117.703 134.829 118.858 133.986 119.703 132.869C120.547 131.752 121.043 130.411 121.129 129.013C121.214 127.615 120.885 126.223 120.183 125.012C119.481 123.8 118.438 122.822 117.183 122.201C119.559 116.885 123.441 112.836 127.19 108.015C131.476 102.5 135.434 95.834 135.434 85.7156C135.425 76.2453 131.659 67.1655 124.962 60.4694C118.265 53.7732 109.185 50.0079 99.7148 50V50ZM99.7148 73.8097C99.2447 73.8097 98.7853 73.9491 98.3945 74.2102C98.0037 74.4713 97.6991 74.8425 97.5192 75.2767C97.3394 75.711 97.2923 76.1888 97.384 76.6498C97.4757 77.1107 97.702 77.5342 98.0344 77.8665C98.3667 78.1989 98.7902 78.4252 99.2511 78.5169C99.7121 78.6086 100.19 78.5615 100.624 78.3817C101.058 78.2018 101.43 77.8972 101.691 77.5064C101.952 77.1156 102.091 76.6562 102.091 76.1861C102.091 75.8741 102.03 75.565 101.91 75.2767C101.791 74.9884 101.616 74.7264 101.395 74.5058C101.174 74.2851 100.912 74.11 100.624 73.9906C100.336 73.8712 100.027 73.8097 99.7148 73.8097ZM97.3569 80.9183C96.8485 80.9142 96.3521 81.0732 95.9407 81.3721C95.5293 81.6709 95.2246 82.0939 95.0714 82.5787L92.695 89.7245C92.5736 90.0828 92.5395 90.4649 92.5955 90.839C92.6516 91.2131 92.7961 91.5685 93.0171 91.8755C93.2381 92.1825 93.5292 92.4323 93.8662 92.6042C94.2032 92.776 94.5764 92.8649 94.9547 92.8635H101.167L97.453 104.016C97.3544 104.313 97.3151 104.626 97.3375 104.938C97.3599 105.25 97.4435 105.554 97.5836 105.834C97.7236 106.113 97.9173 106.362 98.1536 106.567C98.39 106.772 98.6643 106.928 98.961 107.026C99.2577 107.125 99.5709 107.164 99.8827 107.142C100.195 107.12 100.499 107.036 100.778 106.896C101.058 106.756 101.307 106.562 101.512 106.326C101.717 106.089 101.873 105.815 101.971 105.518L106.733 91.23C106.853 90.8724 106.886 90.4915 106.829 90.1188C106.772 89.7461 106.627 89.3922 106.407 89.0864C106.186 88.7807 105.896 88.5318 105.56 88.3603C105.225 88.1888 104.853 88.0997 104.476 88.1003H98.2527L99.5897 84.0945C99.7178 83.7362 99.7579 83.3525 99.7068 82.9755C99.6557 82.5985 99.5148 82.2393 99.296 81.9281C99.0772 81.6168 98.7869 81.3627 98.4495 81.187C98.112 81.0113 97.7374 80.9191 97.3569 80.9183V80.9183ZM85.4262 126.194H114.001C114.624 126.207 115.218 126.464 115.654 126.909C116.09 127.355 116.334 127.953 116.334 128.577C116.334 129.2 116.09 129.798 115.654 130.244C115.218 130.689 114.624 130.946 114.001 130.959H85.4262C84.803 130.946 84.2098 130.689 83.7736 130.244C83.3375 129.798 83.0932 129.2 83.0932 128.577C83.0932 127.953 83.3375 127.355 83.7736 126.909C84.2098 126.464 84.803 126.207 85.4262 126.194V126.194ZM87.8027 135.711H111.621V142.857C111.628 143.171 111.571 143.483 111.454 143.775C111.337 144.066 111.162 144.331 110.94 144.553C110.718 144.775 110.453 144.95 110.162 145.067C109.87 145.184 109.558 145.241 109.244 145.234H90.1915C89.8775 145.241 89.5654 145.184 89.274 145.067C88.9825 144.95 88.7178 144.775 88.4957 144.553C88.2736 144.331 88.0989 144.066 87.9819 143.775C87.8649 143.483 87.8081 143.171 87.8151 142.857L87.8027 135.711Z" fill="black"/>
</g>
<defs>
<clipPath id="clip0">
<rect width="71.4302" height="100" fill="white" transform="translate(64 50)"/>
</clipPath>
</defs>
</svg>
