<svg xmlns="http://www.w3.org/2000/svg" width="69.133" height="96.784" viewBox="0 0 69.133 96.784"><defs><style>.a{fill-rule:evenodd;}</style></defs><g transform="translate(-5.341 8.909)"><g transform="translate(5.341 -8.909)"><path class="a" d="M49.929,5.121a34.565,34.565,0,0,0-9.875,1.44,2.3,2.3,0,1,0,1.314,4.415A29.965,29.965,0,0,1,79.887,39.688c0,8.642-3.087,13.713-7,18.748-3.635,4.674-8.114,9.2-10.737,15.821H37.712c-2.623-6.62-7.1-11.147-10.737-15.821-3.917-5.036-7-10.107-7-18.748a29.938,29.938,0,0,1,1.247-8.561A2.3,2.3,0,1,0,16.8,29.813a34.565,34.565,0,0,0-1.44,9.875c0,9.794,3.827,16.245,7.976,21.579,3.629,4.666,7.388,8.585,9.686,13.73A6.886,6.886,0,0,0,33.8,87.669v7.323a6.949,6.949,0,0,0,6.913,6.913H59.147a6.949,6.949,0,0,0,6.913-6.913V87.671A6.887,6.887,0,0,0,66.835,75c2.3-5.145,6.057-9.064,9.686-13.73C80.669,55.933,84.5,49.481,84.5,39.688A34.6,34.6,0,0,0,49.929,5.121Zm0,23.044a2.3,2.3,0,1,0,2.3,2.3A2.3,2.3,0,0,0,49.929,28.165Zm-2.282,6.88a2.3,2.3,0,0,0-2.212,1.607l-2.3,6.916a2.3,2.3,0,0,0,2.187,3.038h6.013L47.74,57.4a2.3,2.3,0,1,0,4.373,1.454l4.609-13.829a2.3,2.3,0,0,0-2.185-3.029H48.514l1.294-3.877A2.3,2.3,0,0,0,47.647,35.045ZM36.1,78.865H63.756a2.306,2.306,0,0,1,0,4.611H36.1a2.306,2.306,0,0,1,0-4.611Zm2.3,9.211H61.452v6.916a2.251,2.251,0,0,1-2.3,2.3H40.712a2.251,2.251,0,0,1-2.3-2.3Z" transform="translate(-15.363 -5.121)"/></g></g></svg>