<svg width="200" height="200" viewBox="0 0 200 200" fill="none" xmlns="http://www.w3.org/2000/svg">
<path d="M100 200C155.228 200 200 155.228 200 100C200 44.7715 155.228 0 100 0C44.7715 0 0 44.7715 0 100C0 155.228 44.7715 200 100 200Z" fill="white"/>
<path d="M100 199.5C154.952 199.5 199.5 154.952 199.5 100C199.5 45.0477 154.952 0.5 100 0.5C45.0477 0.5 0.5 45.0477 0.5 100C0.5 154.952 45.0477 199.5 100 199.5Z" stroke="#DB6C36"/>
<g clip-path="url(#clip0)">
<path fill-rule="evenodd" clip-rule="evenodd" d="M56.4138 75.0012C54.686 77.9933 53.4016 81.2203 52.6007 84.5813C52.5282 84.8852 52.5162 85.2005 52.5655 85.5091C52.6148 85.8177 52.7243 86.1136 52.888 86.3798C53.0516 86.6461 53.2661 86.8775 53.5191 87.0609C53.7722 87.2442 54.0589 87.3759 54.3629 87.4485C54.6668 87.5211 54.9821 87.533 55.2907 87.4838C55.5993 87.4345 55.8952 87.3249 56.1614 87.1613C56.4277 86.9976 56.6591 86.7831 56.8425 86.5301C57.0258 86.277 57.1575 85.9903 57.2301 85.6864C58.3484 80.997 60.5463 76.6336 63.6488 72.9437C66.7513 69.2537 70.6726 66.3393 75.1003 64.4325C79.528 62.5257 84.3399 61.6792 89.1525 61.9604C93.9652 62.2417 98.6456 63.6429 102.821 66.0525C110.554 70.5171 113.497 75.8991 115.981 82.0016C118.285 87.6689 120.021 94.0149 124.59 99.7824L111.965 121.65C104.687 120.577 98.323 122.244 92.2618 123.084C85.732 123.987 79.6017 124.126 71.8697 119.662C69.2752 118.165 66.9118 116.299 64.8536 114.123C64.6383 113.896 64.3804 113.714 64.0946 113.586C63.8088 113.458 63.5007 113.388 63.1879 113.38C62.875 113.372 62.5636 113.425 62.2713 113.537C61.979 113.649 61.7116 113.817 61.4844 114.032C61.2572 114.247 61.0747 114.505 60.9471 114.791C60.8196 115.077 60.7496 115.385 60.7411 115.698C60.7326 116.011 60.7859 116.322 60.8978 116.614C61.0097 116.907 61.1781 117.174 61.3933 117.401C63.7674 119.912 66.4932 122.064 69.4856 123.791C78.2493 128.851 85.9987 128.759 92.915 127.802C98.965 126.966 104.414 125.627 110.205 126.229C110.115 127.626 110.439 129.02 111.138 130.234C111.836 131.448 112.878 132.429 114.132 133.054C115.385 133.679 116.796 133.919 118.186 133.746C119.576 133.573 120.884 132.993 121.945 132.079L128.498 135.862C130.141 136.799 132.087 137.05 133.914 136.561C135.741 136.071 137.301 134.881 138.255 133.248L147.778 116.753C148.716 115.11 148.967 113.164 148.477 111.337C147.988 109.51 146.797 107.95 145.164 106.996L138.613 103.214C138.872 101.837 138.72 100.415 138.175 99.1256C137.629 97.8358 136.716 96.7356 135.548 95.9627C134.38 95.1898 133.01 94.7786 131.61 94.7806C130.21 94.7827 128.841 95.1978 127.676 95.9741C124.26 91.2581 122.694 85.8717 120.394 80.214C117.761 73.7452 113.967 66.984 105.204 61.9248C96.9982 57.1974 87.2517 55.9193 78.1042 58.3709C68.9568 60.8226 61.1558 66.8036 56.4138 75.0012V75.0012ZM77.0336 86.906C76.7986 87.3131 76.6896 87.7807 76.7203 88.2497C76.751 88.7187 76.9202 89.168 77.2063 89.5409C77.4924 89.9138 77.8827 90.1935 78.3278 90.3446C78.7728 90.4956 79.2527 90.5113 79.7067 90.3897C80.1607 90.2681 80.5684 90.0145 80.8783 89.6611C81.1882 89.3078 81.3864 88.8704 81.4477 88.4044C81.5091 87.9384 81.4309 87.4647 81.223 87.0432C81.0151 86.6216 80.6869 86.2712 80.2799 86.0362C80.0096 85.8802 79.7112 85.7789 79.4018 85.7382C79.0924 85.6974 78.778 85.718 78.4766 85.7988C78.1751 85.8796 77.8926 86.0189 77.645 86.2089C77.3974 86.3989 77.1896 86.6358 77.0336 86.906ZM82.0109 92.5023C81.7531 92.9405 81.6426 93.45 81.6957 93.9557C81.7489 94.4614 81.9628 94.9367 82.3061 95.3118L87.3064 100.943C87.5559 101.227 87.8698 101.448 88.2218 101.586C88.5738 101.725 88.9538 101.777 89.3302 101.739C89.7066 101.701 90.0685 101.574 90.3858 101.368C90.7031 101.162 90.9667 100.884 91.1546 100.555L94.261 95.1748L102.062 103.968C102.27 104.202 102.521 104.392 102.803 104.529C103.084 104.665 103.389 104.745 103.702 104.764C104.014 104.782 104.326 104.739 104.622 104.637C104.917 104.534 105.19 104.375 105.423 104.167C105.657 103.96 105.848 103.708 105.984 103.427C106.121 103.145 106.2 102.84 106.219 102.528C106.237 102.216 106.194 101.903 106.092 101.608C105.99 101.312 105.83 101.04 105.622 100.806L95.6293 89.5378C95.3794 89.2555 95.0659 89.0367 94.7147 88.8995C94.3636 88.7624 93.9848 88.7107 93.6097 88.7488C93.2346 88.787 92.874 88.9138 92.5576 89.1189C92.2412 89.3239 91.9782 89.6013 91.7902 89.9281L88.6786 95.3175L85.8779 92.1567C85.6317 91.8667 85.3194 91.64 84.9674 91.4958C84.6154 91.3516 84.2338 91.294 83.8549 91.3278C83.476 91.3617 83.1107 91.4861 82.7898 91.6904C82.469 91.8948 82.2018 92.1732 82.0109 92.5023V92.5023ZM115.256 125.473L129.543 100.726C129.866 100.193 130.385 99.8073 130.989 99.6522C131.593 99.4972 132.233 99.5849 132.773 99.8966C133.313 100.208 133.709 100.719 133.876 101.319C134.044 101.92 133.97 102.562 133.669 103.108L119.382 127.855C119.059 128.388 118.54 128.773 117.936 128.928C117.333 129.083 116.692 128.996 116.152 128.684C115.612 128.372 115.216 127.862 115.049 127.261C114.881 126.661 114.955 126.019 115.256 125.473V125.473ZM124.686 128.173L136.595 107.546L142.783 111.119C143.059 111.27 143.301 111.475 143.495 111.722C143.689 111.969 143.83 112.253 143.912 112.556C143.993 112.86 144.012 113.176 143.968 113.487C143.923 113.798 143.816 114.097 143.653 114.365L134.127 130.865C133.976 131.141 133.771 131.383 133.524 131.577C133.277 131.771 132.993 131.912 132.69 131.994C132.386 132.075 132.07 132.094 131.759 132.05C131.448 132.005 131.149 131.898 130.881 131.735L124.686 128.173Z" fill="#DB6C36"/>
</g>
<defs>
<clipPath id="clip0">
<rect width="71.4302" height="100" fill="white" transform="translate(38.5564 105.931) rotate(-60)"/>
</clipPath>
</defs>
</svg>
