<svg width="39" height="30" viewBox="0 0 39 30" fill="none" xmlns="http://www.w3.org/2000/svg">
<path d="M36.8182 0H1.36364C0.609375 0 0 0.609375 0 1.36364V8.18182H38.1818V1.36364C38.1818 0.609375 37.5724 0 36.8182 0ZM0 28.6364C0 29.3906 0.609375 30 1.36364 30H36.8182C37.5724 30 38.1818 29.3906 38.1818 28.6364V11.9318H0V28.6364ZM24.6733 20.7955C24.6733 20.608 24.8267 20.4545 25.0142 20.4545H32.0455C32.233 20.4545 32.3864 20.608 32.3864 20.7955V23.8636C32.3864 24.0511 32.233 24.2045 32.0455 24.2045H25.0142C24.8267 24.2045 24.6733 24.0511 24.6733 23.8636V20.7955Z" fill="#DD7949"/>
</svg>
