<svg xmlns="http://www.w3.org/2000/svg" width="120.146" height="120.146" viewBox="0 0 120.146 120.146"><g transform="translate(-2.381 -2.381)"><g transform="translate(2.381 2.381)"><path d="M85.708,123.42H57.443l2.506-2.506a1.936,1.936,0,0,0,0-2.74L36.694,94.92a1.933,1.933,0,0,0-1.37-.568H6.257V90.476H2.381v34.881H6.257v-3.876H23.005l20.781,17a1.935,1.935,0,0,0,1.227.438H85.708a1.937,1.937,0,0,0,1.938-1.938V125.357A1.937,1.937,0,0,0,85.708,123.42ZM83.77,135.047H45.705l-20.781-17a1.935,1.935,0,0,0-1.227-.438H6.257V98.228H34.522l21.316,21.316-5.011,5.011L40.57,114.3l-2.74,2.74,11.627,11.627a1.937,1.937,0,0,0,2.74,0l1.37-1.37h30.2Z" transform="translate(-2.381 -18.776)"/><path d="M131.945,99.246V79.511a27.13,27.13,0,0,0-54.26,0V99.246a5.8,5.8,0,0,0,1.938,11.271h50.384a5.8,5.8,0,0,0,1.938-11.271Zm-1.938,7.395H79.623a1.938,1.938,0,0,1,0-3.876h5.814V98.889H81.561V79.511a23.254,23.254,0,0,1,46.508,0V98.889h-3.876v3.876h5.814a1.938,1.938,0,1,1,0,3.876Z" transform="translate(-15.674 -11.686)"/><path d="M120.873,44.074h-4.955l4.831-12.883a1.939,1.939,0,0,0-2.535-2.48L109.246,32.3l-8.968-3.589a1.939,1.939,0,0,0-2.535,2.48l4.831,12.885H97.619V47.95h23.254Zm-14.16,0-3.8-10.135,5.614,2.246a1.927,1.927,0,0,0,1.44,0l5.614-2.246-3.8,10.135Z" transform="translate(-20.105 -7.255)"/><path d="M33.386,64.392a30.78,30.78,0,0,0,16.789-4.955l11.532,4.8a1.9,1.9,0,0,0,.746.151,1.938,1.938,0,0,0,1.789-2.684l-4.8-11.532A31,31,0,1,0,33.386,64.392Zm0-58.135a27.11,27.11,0,0,1,22.272,42.6,1.946,1.946,0,0,0-.2,1.853l3.4,8.149-8.149-3.4a1.926,1.926,0,0,0-1.853.2,27.124,27.124,0,1,1-15.466-49.4Z" transform="translate(-2.381 -2.381)"/><path d="M26.8,34.55A7.751,7.751,0,1,0,19.048,26.8,7.759,7.759,0,0,0,26.8,34.55Zm0-11.627A3.876,3.876,0,1,1,22.923,26.8,3.88,3.88,0,0,1,26.8,22.923Z" transform="translate(-5.483 -5.483)"/><path d="M50.609,42.857a7.751,7.751,0,1,0,7.751,7.751A7.759,7.759,0,0,0,50.609,42.857Zm0,11.627a3.876,3.876,0,1,1,3.876-3.876A3.88,3.88,0,0,1,50.609,54.484Z" transform="translate(-9.914 -9.914)"/><rect width="43.847" height="3.876" transform="translate(14.132 45.138) rotate(-45)"/></g><g transform="translate(45.082 27.362)"><g transform="translate(32.9 30.736)"><g transform="translate(4.248)"><path d="M75.159,56.933a.708.708,0,0,1-.594-.323L60.291,34.55V56.225a.708.708,0,1,1-1.416,0V32.152a.708.708,0,0,1,1.3-.385l14.274,22.06V31.444a.708.708,0,0,1,1.416,0V56.225a.708.708,0,0,1-.708.708Z" transform="translate(-58.874 -30.736)"/></g><g transform="translate(0 10.62)"><path d="M57.681,97.087H33.608a.708.708,0,0,1,0-1.416H57.681a.708.708,0,0,1,0,1.416Z" transform="translate(-32.9 -95.671)"/></g><g transform="translate(0 14.869)"><path d="M57.681,123.061H33.608a.708.708,0,1,1,0-1.416H57.681a.708.708,0,1,1,0,1.416Z" transform="translate(-32.9 -121.645)"/></g></g></g></g></svg>