<svg xmlns="http://www.w3.org/2000/svg" width="1478.062" height="870.739" viewBox="0 0 1478.062 870.739"><defs><style>.a{fill:#e4e4e4;}.b{fill:#fff;}.c{fill:#f2f2f2;}.d{fill:#71707c;}.e{fill:#ae8f80;}</style></defs><g transform="translate(-53.296 -54.842)"><path class="a" d="M11.928,113.912a78.967,78.967,0,0,1-8.42-18.5l4.478-1.375a74.311,74.311,0,0,0,7.92,17.406ZM.069,75.378Q0,73.717,0,72.053A79.144,79.144,0,0,1,1.831,55.128l4.575,1A74.464,74.464,0,0,0,4.684,72.053q0,1.566.066,3.128ZM12.884,38.145,8.719,36A79.9,79.9,0,0,1,15.385,25.25a64.776,64.776,0,0,1,4.969-5.967l3.413,3.208a60.138,60.138,0,0,0-4.608,5.534,75.2,75.2,0,0,0-6.275,10.119ZM38.8,10.972,36.585,6.843A63.763,63.763,0,0,1,55.921.2l.794,4.617A59.063,59.063,0,0,0,38.8,10.972Zm54.88-.512A58.535,58.535,0,0,0,75.66,4.631L76.363,0A63.216,63.216,0,0,1,95.819,6.294Z" transform="translate(1307.07 165.834) rotate(167)"/><path class="a" d="M216.834,59.4A117.19,117.19,0,0,0,204.91,45.331l3.323-3.3a121.882,121.882,0,0,1,12.4,14.632ZM3.192,44.1,0,40.67A151.839,151.839,0,0,1,14.789,28.556l2.733,3.8A147.082,147.082,0,0,0,3.192,44.1ZM190.926,33.3a149.7,149.7,0,0,0-15.584-10.017l2.282-4.091A154.345,154.345,0,0,1,193.7,29.523ZM33.219,22.526l-2.231-4.119a152.56,152.56,0,0,1,17.345-8.028l1.7,4.366a147.9,147.9,0,0,0-16.811,7.781ZM158.633,15.3a146.948,146.948,0,0,0-17.582-5.815l1.187-4.532a151.791,151.791,0,0,1,18.144,6ZM67.684,9.13,66.546,4.586A153.856,153.856,0,0,1,85.337,1.109L85.9,5.76A149.18,149.18,0,0,0,67.684,9.13Zm55.191-3.2a148.233,148.233,0,0,0-18.481-1.244L104.415,0a153.078,153.078,0,0,1,19.067,1.283Z" transform="translate(1531.359 925.58) rotate(180)"/><path class="a" d="M627.319,508.1l-.171-4.681c6.078-.222,12.221-.688,18.258-1.385l.537,4.654C639.785,507.4,633.519,507.875,627.319,508.1Zm-18.678-.055c-6.206-.263-12.469-.776-18.617-1.526l.567-4.649c6.025.734,12.165,1.237,18.248,1.5Zm55.76-4.226-.9-4.6c5.965-1.168,11.96-2.589,17.817-4.222l1.258,4.512C676.6,501.179,670.487,502.628,664.4,503.821Zm-92.813-.293c-6.08-1.236-12.184-2.731-18.143-4.445l1.295-4.5c5.84,1.679,11.823,3.145,17.782,4.356Zm-35.876-10.316c-5.805-2.183-11.6-4.627-17.21-7.265l1.992-4.239c5.5,2.585,11.177,4.98,16.866,7.119Zm-33.787-15.868c-5.372-3.063-10.7-6.387-15.846-9.881l2.632-3.875c5.042,3.425,10.269,6.683,15.534,9.686Z" transform="matrix(0.883, -0.469, 0.469, 0.883, -344.826, 373.926)"/><path class="a" d="M659.94,767.75c-6.269-1.126-12.608-2.375-18.84-3.711l.983-4.581c6.181,1.326,12.467,2.565,18.685,3.681ZM622.4,759.7c-6.194-1.548-12.434-3.22-18.547-4.969l1.289-4.5c6.062,1.734,12.251,3.393,18.394,4.928Zm-36.916-10.56c-6.074-1.961-12.187-4.049-18.17-6.207l1.589-4.407c5.933,2.14,12,4.211,18.02,6.156Zm-36.119-13.02c-5.912-2.36-11.87-4.854-17.71-7.416l1.882-4.289c5.792,2.54,11.7,5.015,17.564,7.355ZM514.2,720.695c-5.748-2.755-11.524-5.644-17.17-8.588l2.165-4.154c5.6,2.919,11.329,5.785,17.03,8.518Zm-34.043-17.747c-5.528-3.121-11.1-6.39-16.557-9.715l2.437-4c5.414,3.3,10.939,6.54,16.423,9.636Zm-32.781-19.977c-5.324-3.492-10.665-7.123-15.876-10.792l2.7-3.83c5.169,3.64,10.468,7.241,15.749,10.705Zm-31.4-22.12c-5.093-3.866-10.163-7.882-15.068-11.935l2.984-3.611c4.856,4.013,9.875,7.988,14.917,11.815Zm-29.63-24.482c-4.747-4.266-9.467-8.688-14.028-13.144l3.273-3.35c4.515,4.41,9.186,8.788,13.885,13.01Zm-27.494-26.864c-4.374-4.647-8.707-9.448-12.879-14.272l3.543-3.065c4.129,4.775,8.418,9.528,12.747,14.128ZM333.713,580.43c-3.969-5-7.883-10.15-11.633-15.306l3.788-2.755c3.712,5.1,7.585,10.2,11.513,15.149Z" transform="translate(-236.226 140.813)"/><path class="b" d="M135.816,285.45c-.169,1.532-.344,3.085-.569,4.65a125.756,125.756,0,0,1-2.459,12.636,122.323,122.323,0,0,1-24.348,48.441c.941,1.22,1.883,2.441,2.841,3.689a126.853,126.853,0,0,0,25.931-51.03,130.11,130.11,0,0,0,2.6-13.493c.219-1.543.394-3.1.541-4.634a125.787,125.787,0,0,0-1.915-37.94q-2.18.973-4.276,1.9a121.9,121.9,0,0,1,1.652,35.784Z" transform="translate(-55.144 1.864)"/><g transform="translate(1367.107 294.489)"><path class="c" d="M858.446,143.372l-12.693,11.686,10.088-16.926c-7.948-14.413-20.946-26.868-20.946-26.868s-26.967,25.837-26.967,46.146,12.073,27.4,26.967,27.4,26.967-7.091,26.967-27.4A35.626,35.626,0,0,0,858.446,143.372Z" transform="translate(-807.927 -110.136)"/><path class="b" d="M894.664,153.5v1c-.059,11.636-2.022,20.715-5.873,27.108-.055.094-.114.183-.169.278l-.431-.263-.411-.258c4.272-6.9,5.783-16.661,5.838-26.811,0-.327.01-.659,0-.991-.015-4.3-.278-8.643-.7-12.865-.03-.327-.064-.659-.1-.991-.585-5.57-1.427-10.893-2.29-15.517-.059-.327-.124-.654-.188-.976-1.492-7.82-3.013-13.485-3.36-14.739-.04-.154-.064-.238-.069-.258l.471-.134,0,0,.476-.134c.005.02.089.3.228.828.53,1.962,1.908,7.29,3.261,14.317.06.317.124.644.183.971.7,3.752,1.393,7.944,1.938,12.345q.208,1.658.372,3.271c.04.332.074.664.1.991Q894.64,147.515,894.664,153.5Z" transform="translate(-860.103 -107.945)"/><path class="b" d="M869,148.026c-.332.045-.669.089-1.011.124a27.34,27.34,0,0,1-2.8.144,26.594,26.594,0,0,1-11.5-2.6l-.629.793a27.579,27.579,0,0,0,12.127,2.8,28.284,28.284,0,0,0,2.983-.159c.337-.035.674-.079,1.006-.129a27.348,27.348,0,0,0,7.9-2.394q-.32-.409-.625-.8A26.5,26.5,0,0,1,869,148.026Z" transform="translate(-837.742 -132.881)"/><path class="b" d="M860.883,179.183q-.513.03-1.026.03c-.1,0-.213,0-.317,0A26.736,26.736,0,0,1,837.6,167.755c-.2.293-.4.585-.589.882a27.728,27.728,0,0,0,22.534,11.572c.139,0,.278,0,.416,0,.347,0,.689-.015,1.031-.03a27.582,27.582,0,0,0,14.694-5.154c-.159-.292-.317-.585-.481-.877A26.552,26.552,0,0,1,860.883,179.183Z" transform="translate(-827.135 -147.451)"/><path class="b" d="M854.251,204.78c-.347.03-.694.05-1.041.064-.372.015-.743.025-1.115.025a26.808,26.808,0,0,1-25.7-19.288c-.223.4-.446.8-.659,1.2a27.79,27.79,0,0,0,26.36,19.08c.372,0,.743,0,1.11-.025s.7-.03,1.046-.055a27.708,27.708,0,0,0,18.287-8.925c-.1-.367-.223-.729-.342-1.1A26.721,26.721,0,0,1,854.251,204.78Z" transform="translate(-819.69 -159.226)"/><ellipse class="b" cx="0.835" cy="0.835" rx="0.835" ry="0.835" transform="translate(29.077 56.35)"/></g><g transform="translate(1401.485 772.327)"><path class="c" d="M826.244,122.9l-4.6,4.237L825.3,121a47.4,47.4,0,0,0-7.595-9.742s-9.778,9.368-9.778,16.731,4.378,9.935,9.778,9.935,9.778-2.571,9.778-9.935A12.917,12.917,0,0,0,826.244,122.9Z" transform="translate(-807.927 -110.854)"/><path class="b" d="M889.727,124.462v.363c-.022,4.219-.733,7.511-2.129,9.829-.02.034-.041.066-.061.1l-.156-.1-.149-.093c1.549-2.5,2.1-6.041,2.117-9.721,0-.119,0-.239,0-.359-.005-1.558-.1-3.134-.253-4.665-.011-.119-.023-.239-.036-.359-.212-2.02-.517-3.949-.83-5.626-.022-.119-.045-.237-.068-.354-.541-2.835-1.092-4.889-1.218-5.344-.014-.056-.023-.086-.025-.093l.171-.049,0,0,.172-.049c0,.007.032.11.083.3.192.712.692,2.643,1.182,5.191.022.115.045.234.066.352.255,1.36.5,2.88.7,4.476q.075.6.135,1.186c.014.12.027.241.038.359Q889.718,122.292,889.727,124.462Z" transform="translate(-877.196 -107.945)"/><path class="b" d="M858.841,146.542c-.12.016-.243.032-.367.045a9.913,9.913,0,0,1-1.013.052,9.643,9.643,0,0,1-4.169-.942l-.228.287a10,10,0,0,0,4.4,1.013,10.257,10.257,0,0,0,1.082-.057c.122-.013.244-.029.365-.047a9.916,9.916,0,0,0,2.866-.868l-.226-.291A9.609,9.609,0,0,1,858.841,146.542Z" transform="translate(-847.509 -141.051)"/><path class="b" d="M845.663,171.9q-.186.011-.372.011c-.038,0-.077,0-.115,0a9.694,9.694,0,0,1-7.957-4.156c-.072.106-.144.212-.214.32a10.054,10.054,0,0,0,8.17,4.2c.05,0,.1,0,.151,0,.126,0,.25-.005.374-.011a10,10,0,0,0,5.328-1.869c-.057-.106-.115-.212-.174-.318A9.627,9.627,0,0,1,845.663,171.9Z" transform="translate(-833.427 -160.393)"/><path class="b" d="M836.075,192.542c-.126.011-.252.018-.377.023s-.269.009-.4.009a9.72,9.72,0,0,1-9.319-6.993c-.081.146-.162.289-.239.435a10.076,10.076,0,0,0,9.557,6.918c.135,0,.27,0,.4-.009s.253-.011.379-.02a10.046,10.046,0,0,0,6.63-3.236c-.038-.133-.081-.264-.124-.4A9.688,9.688,0,0,1,836.075,192.542Z" transform="translate(-823.544 -176.025)"/><ellipse class="b" cx="0.303" cy="0.303" rx="0.303" ry="0.303" transform="translate(10.542 20.431)"/></g><g transform="translate(226.288 586.568)"><path class="c" d="M858.446,143.372l-12.693,11.686,10.088-16.926c-7.948-14.413-20.946-26.868-20.946-26.868s-26.967,25.837-26.967,46.146,12.073,27.4,26.967,27.4,26.967-7.091,26.967-27.4A35.626,35.626,0,0,0,858.446,143.372Z" transform="translate(-807.927 -110.136)"/><path class="b" d="M894.664,153.5v1c-.059,11.636-2.022,20.715-5.873,27.108-.055.094-.114.183-.169.278l-.431-.263-.411-.258c4.272-6.9,5.783-16.661,5.838-26.811,0-.327.01-.659,0-.991-.015-4.3-.278-8.643-.7-12.865-.03-.327-.064-.659-.1-.991-.585-5.57-1.427-10.893-2.29-15.517-.059-.327-.124-.654-.188-.976-1.492-7.82-3.013-13.485-3.36-14.739-.04-.154-.064-.238-.069-.258l.471-.134,0,0,.476-.134c.005.02.089.3.228.828.53,1.962,1.908,7.29,3.261,14.317.06.317.124.644.183.971.7,3.752,1.393,7.944,1.938,12.345q.208,1.658.372,3.271c.04.332.074.664.1.991Q894.64,147.515,894.664,153.5Z" transform="translate(-860.103 -107.945)"/><path class="b" d="M869,148.026c-.332.045-.669.089-1.011.124a27.34,27.34,0,0,1-2.8.144,26.594,26.594,0,0,1-11.5-2.6l-.629.793a27.579,27.579,0,0,0,12.127,2.8,28.284,28.284,0,0,0,2.983-.159c.337-.035.674-.079,1.006-.129a27.348,27.348,0,0,0,7.9-2.394q-.32-.409-.625-.8A26.5,26.5,0,0,1,869,148.026Z" transform="translate(-837.742 -132.881)"/><path class="b" d="M860.883,179.183q-.513.03-1.026.03c-.1,0-.213,0-.317,0A26.736,26.736,0,0,1,837.6,167.755c-.2.293-.4.585-.589.882a27.728,27.728,0,0,0,22.534,11.572c.139,0,.278,0,.416,0,.347,0,.689-.015,1.031-.03a27.582,27.582,0,0,0,14.694-5.154c-.159-.292-.317-.585-.481-.877A26.552,26.552,0,0,1,860.883,179.183Z" transform="translate(-827.135 -147.451)"/><path class="b" d="M854.251,204.78c-.347.03-.694.05-1.041.064-.372.015-.743.025-1.115.025a26.808,26.808,0,0,1-25.7-19.288c-.223.4-.446.8-.659,1.2a27.79,27.79,0,0,0,26.36,19.08c.372,0,.743,0,1.11-.025s.7-.03,1.046-.055a27.708,27.708,0,0,0,18.287-8.925c-.1-.367-.223-.729-.342-1.1A26.721,26.721,0,0,1,854.251,204.78Z" transform="translate(-819.69 -159.226)"/><ellipse class="b" cx="0.835" cy="0.835" rx="0.835" ry="0.835" transform="translate(29.077 56.35)"/></g><g transform="matrix(0.602, -0.799, 0.799, 0.602, 53.296, 313.284)"><path class="c" d="M171.687,109.123l-43.138,39.714,34.283-57.525C135.822,42.331,91.647,0,91.647,0S0,87.805,0,156.826s41.031,93.12,91.647,93.12,91.646-24.1,91.646-93.12C183.294,141.464,178.747,125.171,171.687,109.123Z" transform="translate(0 3.827)"/><path class="b" d="M26.325,154.814v3.4c-.2,39.546-6.871,70.4-19.958,92.127-.185.32-.387.623-.573.943l-1.465-.893-1.4-.876c14.518-23.461,19.655-56.624,19.84-91.117.017-1.112.034-2.24.017-3.368-.05-14.6-.943-29.373-2.375-43.723-.1-1.112-.219-2.24-.337-3.368C18.089,89.012,15.226,70.923,12.3,55.209c-.2-1.112-.421-2.223-.64-3.318C6.585,25.314,1.415,6.063.236,1.8.1,1.28.017.994,0,.926L1.6.472,1.617.455,3.234,0c.017.067.3,1.027.775,2.813,1.8,6.669,6.484,24.775,11.082,48.657.2,1.078.421,2.19.623,3.3,2.391,12.75,4.733,27,6.585,41.954q.708,5.634,1.263,11.116c.135,1.128.253,2.257.354,3.368Q26.241,134.477,26.325,154.814Z" transform="translate(91.13 0)"/><path class="b" d="M54.148,7.916c-1.129.152-2.274.3-3.436.421a92.921,92.921,0,0,1-9.5.488A90.38,90.38,0,0,1,2.139,0C1.432.893.724,1.785,0,2.695a93.729,93.729,0,0,0,41.213,9.5,96.129,96.129,0,0,0,10.139-.539c1.146-.118,2.291-.27,3.419-.438A92.942,92.942,0,0,0,81.635,3.082Q80.548,1.693,79.512.354A90.069,90.069,0,0,1,54.148,7.916Z" transform="translate(52.073 43.555)"/><path class="b" d="M81.146,38.839q-1.743.1-3.486.1c-.354.017-.724.017-1.078.017A90.862,90.862,0,0,1,2,0C1.331.995.657,1.988,0,3A94.235,94.235,0,0,0,76.582,42.326c.472,0,.943,0,1.415-.017,1.179-.017,2.341-.051,3.5-.1a93.739,93.739,0,0,0,49.938-17.516c-.539-.994-1.078-1.987-1.634-2.981A90.237,90.237,0,0,1,81.146,38.839Z" transform="translate(33.547 69.002)"/><path class="b" d="M96.91,65.247c-1.179.1-2.358.168-3.537.219-1.263.05-2.526.084-3.79.084A91.107,91.107,0,0,1,2.24,0C1.482,1.364.724,2.712,0,4.076A94.444,94.444,0,0,0,89.584,68.919c1.263,0,2.526-.017,3.773-.084,1.2-.034,2.375-.1,3.554-.185a94.167,94.167,0,0,0,62.148-30.333c-.354-1.246-.758-2.476-1.162-3.722A90.812,90.812,0,0,1,96.91,65.247Z" transform="translate(20.545 89.568)"/><ellipse class="b" cx="2.839" cy="2.839" rx="2.839" ry="2.839" transform="translate(98.817 191.506)"/></g><g transform="translate(340.087 181.644)"><path class="d" d="M255.676,102.033l-.67.206L249.36,83.9a11.107,11.107,0,0,0-13.884-7.347h0l-38.86,11.964a11.108,11.108,0,0,0-7.347,13.884h0l30.98,100.625a11.107,11.107,0,0,0,13.884,7.347h0l38.86-11.964a11.107,11.107,0,0,0,7.347-13.884h0L259.026,115.3l.67-.206Z" transform="translate(-188.774 -76.055)"/><path class="b" d="M243.955,85.627l-5.072,1.562a3.941,3.941,0,0,1-1.89,6.263l-22.262,6.854a3.941,3.941,0,0,1-5.085-4.115l-4.738,1.459a8.3,8.3,0,0,0-5.487,10.368l30.935,100.477a8.3,8.3,0,0,0,10.368,5.487h0l39.047-12.022a8.3,8.3,0,0,0,5.487-10.368h0L254.323,91.114a8.3,8.3,0,0,0-10.368-5.487Z" transform="translate(-195.975 -82.503)"/><circle class="e" cx="19.894" cy="19.894" r="19.894" transform="translate(18.126 66.053) rotate(-45)"/><path class="b" d="M256.2,203.547l-9.847-6.68.86-1.267,8.152,5.531,5.892-18.432,1.457.466Z" transform="translate(-207.858 -128)"/></g><g transform="translate(1394.074 477.809)"><path class="d" d="M608.631,321.063l-54.667-19.651a5.2,5.2,0,0,1-3.13-6.644l28.5-79.279a5.2,5.2,0,0,1,6.644-3.13l54.667,19.651a5.2,5.2,0,0,1,3.13,6.644l-28.5,79.279A5.2,5.2,0,0,1,608.631,321.063Z" transform="translate(-550.527 -212.053)"/><path class="b" d="M625.392,333.037l-54.859-19.72a1.6,1.6,0,0,1-.965-2.048l28.687-79.8a1.6,1.6,0,0,1,2.048-.965l54.859,19.72a1.6,1.6,0,0,1,.965,2.048l-28.687,79.8A1.6,1.6,0,0,1,625.392,333.037Z" transform="translate(-566.072 -227.111)"/><circle class="e" cx="15.111" cy="15.111" r="15.111" transform="translate(25.449 53.616) rotate(-45)"/><path class="b" d="M710.073,428.3l-2.17-8.773,1.129-.279,1.8,7.264,12.688-7.419.587,1Z" transform="translate(-666.899 -368.268)"/></g></g></svg>