<svg width="200" height="200" viewBox="0 0 200 200" fill="none" xmlns="http://www.w3.org/2000/svg">
<path d="M100 200C155.228 200 200 155.228 200 100C200 44.7715 155.228 0 100 0C44.7715 0 0 44.7715 0 100C0 155.228 44.7715 200 100 200Z" fill="white"/>
<path d="M100 199.5C154.952 199.5 199.5 154.952 199.5 100C199.5 45.0477 154.952 0.5 100 0.5C45.0477 0.5 0.5 45.0477 0.5 100C0.5 154.952 45.0477 199.5 100 199.5Z" stroke="#707070"/>
<path fill-rule="evenodd" clip-rule="evenodd" d="M103.002 102.183L84.4041 105.902C84.1524 105.952 83.8922 105.938 83.6471 105.862C83.4019 105.786 83.1794 105.651 82.9996 105.468C82.8197 105.285 82.6881 105.06 82.6166 104.813C82.5451 104.567 82.5359 104.307 82.5898 104.056L93.1525 55.4672C93.2282 55.1227 93.4191 54.8143 93.6938 54.593C93.9684 54.3717 94.3103 54.2507 94.663 54.25H115.788C116.048 54.2509 116.304 54.3171 116.531 54.4425C116.759 54.5678 116.951 54.7484 117.09 54.9675C117.23 55.1867 117.312 55.4373 117.329 55.6965C117.347 55.9557 117.299 56.215 117.19 56.4508L103.638 85.4917L126.104 81.8641C126.392 81.819 126.687 81.8559 126.954 81.9706C127.222 82.0853 127.452 82.2732 127.618 82.5126C127.784 82.7521 127.879 83.0334 127.892 83.3244C127.906 83.6154 127.837 83.9042 127.693 84.1578L93.8892 143.181C93.6965 143.503 93.3934 143.745 93.0362 143.86C92.679 143.976 92.2919 143.958 91.9469 143.81C91.602 143.662 91.3225 143.393 91.1606 143.054C90.9986 142.716 90.9651 142.33 91.0664 141.968L103.002 102.183ZM113.356 57.3404H95.9071L86.111 102.404L104.916 98.6416C105.178 98.5899 105.448 98.6068 105.702 98.6905C105.955 98.7742 106.183 98.9219 106.362 99.1194C106.542 99.3168 106.668 99.5573 106.727 99.8176C106.786 100.078 106.777 100.349 106.701 100.605L97.896 129.955L123.395 85.439L101.246 89.013C100.968 89.0567 100.684 89.0243 100.424 88.9192C100.164 88.8141 99.9366 88.6402 99.7673 88.4161C99.5981 88.192 99.4929 87.9261 99.463 87.6469C99.4332 87.3677 99.4797 87.0856 99.5977 86.8308L113.356 57.3404Z" fill="black"/>
</svg>
