<svg width="200" height="200" viewBox="0 0 200 200" fill="none" xmlns="http://www.w3.org/2000/svg">
<path d="M100 200C155.228 200 200 155.228 200 100C200 44.7715 155.228 0 100 0C44.7715 0 0 44.7715 0 100C0 155.228 44.7715 200 100 200Z" fill="white"/>
<path d="M100 199.5C154.952 199.5 199.5 154.952 199.5 100C199.5 45.0477 154.952 0.5 100 0.5C45.0477 0.5 0.5 45.0477 0.5 100C0.5 154.952 45.0477 199.5 100 199.5Z" stroke="#DB6C36"/>
<g clip-path="url(#clip0)">
<path fill-rule="evenodd" clip-rule="evenodd" d="M103.249 98.2449L97.1712 116.211C97.0882 116.454 96.9462 116.672 96.7579 116.847C96.5697 117.021 96.3411 117.146 96.0927 117.21C95.8442 117.275 95.5837 117.276 95.3346 117.215C95.0854 117.154 94.8553 117.031 94.665 116.859L57.8674 83.4174C57.6069 83.1796 57.4353 82.86 57.381 82.5115C57.3267 82.163 57.3928 81.8064 57.5686 81.5006L68.1313 63.2055C68.2619 62.981 68.4469 62.7929 68.6693 62.6586C68.8916 62.5243 69.1441 62.448 69.4036 62.4367C69.6632 62.4255 69.9213 62.4796 70.1544 62.5942C70.3876 62.7088 70.5881 62.8802 70.7377 63.0925L89.112 89.3492L97.2037 68.0788C97.3085 67.8071 97.4878 67.5703 97.721 67.3958C97.9543 67.2213 98.2319 67.116 98.5222 67.0921C98.8125 67.0681 99.1037 67.1265 99.3624 67.2604C99.621 67.3944 99.8367 67.5985 99.9847 67.8495L134.198 126.636C134.381 126.964 134.438 127.347 134.36 127.715C134.282 128.082 134.073 128.408 133.772 128.633C133.471 128.857 133.099 128.965 132.724 128.936C132.35 128.907 131.999 128.743 131.736 128.474L103.249 98.2449ZM69.5915 66.857L60.8669 81.9684L94.9948 112.984L101.139 94.8173C101.225 94.5647 101.375 94.3386 101.575 94.1609C101.774 93.9833 102.015 93.8601 102.276 93.8033C102.537 93.7465 102.808 93.758 103.063 93.8367C103.318 93.9155 103.549 94.0587 103.732 94.2527L124.747 116.553L98.9451 72.2125L90.9655 93.1813C90.8648 93.4434 90.6947 93.6732 90.4734 93.8462C90.2522 94.0191 89.9881 94.1287 89.7094 94.1632C89.4307 94.1977 89.1479 94.1559 88.8912 94.0421C88.6344 93.9284 88.4134 93.747 88.2517 93.5174L69.5915 66.857Z" fill="#DB6C36"/>
</g>
<defs>
<clipPath id="clip0">
<rect width="71.4302" height="100" fill="white" transform="translate(38.5564 105.931) rotate(-60)"/>
</clipPath>
</defs>
</svg>
