<svg width="200" height="200" viewBox="0 0 200 200" fill="none" xmlns="http://www.w3.org/2000/svg">
<path d="M100 200C155.228 200 200 155.228 200 100C200 44.7715 155.228 0 100 0C44.7715 0 0 44.7715 0 100C0 155.228 44.7715 200 100 200Z" fill="white"/>
<path d="M100 199.5C154.952 199.5 199.5 154.952 199.5 100C199.5 45.0477 154.952 0.5 100 0.5C45.0477 0.5 0.5 45.0477 0.5 100C0.5 154.952 45.0477 199.5 100 199.5Z" stroke="#707070"/>
<path d="M137.674 71.8194H122.038C131.686 68.6593 136.842 65.5008 137.674 62.1716C137.809 61.8572 137.865 61.5148 137.838 61.1738C137.796 60.3325 137.506 59.5224 137.006 58.8449L131.016 52.8546C130.198 51.9038 129.173 51.1541 128.019 50.6637C126.865 50.1733 125.614 49.9553 124.362 50.0268C117.709 50.5257 111.222 59.009 109.392 61.6702H91.0927C89.2693 59.0115 82.7825 50.529 76.1291 50.0293C74.8733 49.9194 73.6097 50.1198 72.4496 50.6129C71.2894 51.106 70.2682 51.8767 69.4757 52.857L63.4854 58.8474C63.0753 59.2854 62.7836 59.8208 62.638 60.4029C62.4924 60.985 62.4977 61.5946 62.6533 62.1741C63.4854 65.5008 68.6436 68.6609 78.2889 71.8218H62.8223C61.284 71.8404 59.8138 72.4597 58.726 73.5476C57.6381 74.6354 57.0187 76.1056 57.0002 77.644V84.1308C56.9889 85.445 57.4285 86.7234 58.2458 87.7526C59.0632 88.7818 60.2087 89.4997 61.4913 89.7863L67.3135 141.683C67.561 143.947 68.6278 146.042 70.3129 147.574C71.998 149.106 74.1852 149.969 76.4623 150H124.034C126.32 149.999 128.523 149.146 130.214 147.609C131.906 146.071 132.964 143.959 133.183 141.683L139.005 89.9529C140.263 89.6199 141.38 88.8894 142.189 87.8703C142.998 86.8513 143.457 85.5981 143.496 84.2974V77.8081C143.512 76.2437 142.909 74.7364 141.818 73.6147C140.728 72.493 139.238 71.8477 137.674 71.8194V71.8194ZM111.892 64.0016C114.054 60.8414 119.876 53.8549 124.533 53.5225C125.299 53.4665 126.066 53.6049 126.764 53.9248C127.462 54.2448 128.068 54.7358 128.525 55.3525L134.347 61.1746C134.336 61.3019 134.277 61.4204 134.183 61.5069C133.684 62.5048 130.524 66.3304 111.727 71.3204L111.892 64.0016ZM91.9313 65.166H108.565V71.8194H91.9313V65.166ZM66.149 61.5069C66.055 61.4204 65.9965 61.3019 65.9849 61.1746V61.1746L71.9753 55.1843C72.4414 54.587 73.0538 54.1202 73.7531 53.8288C74.4525 53.5374 75.2152 53.4314 75.9675 53.5209C80.7909 53.8532 86.4465 60.8398 88.6087 63.9999V71.3188C69.8081 66.3304 66.6521 62.6714 66.149 61.5069ZM92.7626 146.671H76.4615C74.9882 146.658 73.5695 146.112 72.4681 145.133C71.3667 144.155 70.6572 142.81 70.4711 141.348L64.818 90.117H92.7626V146.671ZM92.7626 86.7895H62.8223C62.1655 86.7737 61.5399 86.5057 61.0753 86.0411C60.6107 85.5765 60.3427 84.9509 60.3269 84.2941V77.8081C60.3091 77.1254 60.5611 76.4633 61.0282 75.9651C61.4953 75.467 62.14 75.173 62.8223 75.1469H92.7626V86.7895ZM104.406 146.671H96.0893V90.117H104.406V146.671ZM104.406 86.7895H96.0893V75.1461H104.406V86.7895ZM130.022 141.348C129.861 142.82 129.16 144.18 128.052 145.163C126.945 146.147 125.512 146.684 124.031 146.67H107.733V90.117H135.677L130.022 141.348ZM140.168 84.2941C140.153 84.9509 139.885 85.5765 139.42 86.0411C138.955 86.5057 138.33 86.7737 137.673 86.7895H107.733V75.1461H137.507C138.164 75.1619 138.79 75.4299 139.254 75.8945C139.719 76.3591 139.987 76.9846 140.003 77.6415L140.167 84.2949L140.168 84.2941Z" fill="black"/>
</svg>
