<svg width="200" height="200" viewBox="0 0 200 200" fill="none" xmlns="http://www.w3.org/2000/svg">
<path d="M100 200C155.228 200 200 155.228 200 100C200 44.7715 155.228 0 100 0C44.7715 0 0 44.7715 0 100C0 155.228 44.7715 200 100 200Z" fill="white"/>
<path d="M100 199.5C154.952 199.5 199.5 154.952 199.5 100C199.5 45.0477 154.952 0.5 100 0.5C45.0477 0.5 0.5 45.0477 0.5 100C0.5 154.952 45.0477 199.5 100 199.5Z" stroke="#DB6C36"/>
<path d="M94.5558 53.4982L86.738 67.0391C88.8251 57.1038 88.6677 51.0595 86.2006 48.6743C85.9957 48.4004 85.7273 48.1804 85.4185 48.0333C84.6689 47.6491 83.8226 47.4947 82.9856 47.5895L74.8026 49.7821C73.5706 50.0144 72.4087 50.5276 71.407 51.2816C70.4054 52.0357 69.591 53.0105 69.027 54.1302C66.1324 60.1417 70.2358 70.0011 71.6255 72.9164L62.4758 88.7641C59.2616 89.0138 48.6721 90.3903 44.9127 95.9024C44.1896 96.9351 43.7314 98.1296 43.5784 99.3808C43.4253 100.632 43.5821 101.902 44.0349 103.078L46.2275 111.261C46.4018 111.835 46.7196 112.356 47.1509 112.773C47.5822 113.19 48.1128 113.49 48.6925 113.645C51.9895 114.588 57.3054 111.701 64.8655 104.928L57.1322 118.323C56.379 119.664 56.1803 121.247 56.5785 122.733C56.9767 124.219 57.9402 125.491 59.2632 126.276L64.881 129.519C66.0134 130.186 67.3404 130.445 68.6404 130.251C69.9404 130.058 71.1348 129.425 72.0244 128.458L119.88 149.364C121.964 150.282 124.312 150.405 126.481 149.712C128.65 149.018 130.491 147.556 131.656 145.599L155.442 104.401C156.584 102.421 156.947 100.086 156.461 97.8528C155.976 95.6192 154.675 93.6466 152.814 92.3196L110.925 61.4123C111.266 60.1563 111.192 58.824 110.714 57.6136C110.236 56.4032 109.38 55.3796 108.273 54.6951L102.653 51.4505C101.306 50.6545 99.6995 50.4232 98.1828 50.8067C96.6661 51.1903 95.3624 52.1577 94.5558 53.4982V53.4982ZM74.8942 71.9174C73.2386 68.4648 70.0991 59.9294 72.1398 55.7303C72.4741 55.0391 72.9777 54.4437 73.6037 53.9992C74.2297 53.5548 74.9579 53.2757 75.7206 53.1879L83.6738 51.0568C83.7783 51.1305 83.8516 51.2404 83.8796 51.3651C84.4943 52.2961 86.2273 56.9457 81.1505 75.719L74.8942 71.9174ZM65.9225 89.7857L74.2393 75.3806L80.0013 78.7073L71.6846 93.1124L65.9225 89.7857ZM49.8626 110.284C49.7406 110.322 49.6087 110.314 49.4927 110.26V110.26L47.3001 102.077C47.016 101.375 46.9178 100.611 47.0152 99.8599C47.1125 99.1085 47.402 98.395 47.8557 97.7882C50.5552 93.7772 59.4335 92.3726 63.2514 92.0801L69.5898 95.7395C55.8693 109.527 51.1225 110.431 49.8626 110.284ZM136.923 129.818L128.773 143.935C128.025 145.205 126.843 146.16 125.445 146.625C124.046 147.089 122.527 147.032 121.168 146.462L73.9741 125.742L87.9464 101.541L136.923 129.818ZM85.0647 99.8775L70.0946 125.807C69.7524 126.367 69.2076 126.775 68.5729 126.945C67.9383 127.115 67.2625 127.035 66.6857 126.72L61.0687 123.477C60.4686 123.151 60.0212 122.602 59.8233 121.948C59.6255 121.295 59.6932 120.589 60.0118 119.985L74.9819 94.0562L85.0647 99.8775ZM142.745 119.735L138.587 126.937L89.6098 98.6603L93.7681 91.4578L142.745 119.735ZM90.8864 89.794L86.728 96.9965L76.6445 91.1748L80.8029 83.9723L90.8864 89.794ZM150.943 94.8892C152.138 95.7642 152.965 97.0521 153.263 98.5026C153.561 99.9531 153.31 101.463 152.557 102.738L144.408 116.853L95.4315 88.5768L109.404 64.3761L150.943 94.8892ZM106.607 57.5752C107.167 57.9173 107.575 58.4622 107.745 59.0968C107.915 59.7315 107.835 60.4072 107.52 60.984L92.5498 86.913L82.4663 81.0913L97.3535 55.3058C97.6956 54.7449 98.2405 54.3371 98.8752 54.1671C99.5098 53.997 100.186 54.0777 100.762 54.3924L106.606 57.577L106.607 57.5752Z" fill="#DB6C36"/>
</svg>
