<svg xmlns="http://www.w3.org/2000/svg" width="105.405" height="121.849" viewBox="0 0 105.405 121.849"><g transform="translate(-24.438 -27.542)"><path d="M112.749,31.121H93.695c11.757-3.851,18.04-7.7,19.054-11.757a2.571,2.571,0,0,0,.2-1.216,5.214,5.214,0,0,0-1.014-2.838l-7.3-7.3a9.944,9.944,0,0,0-8.108-3.446c-8.108.608-16.013,10.946-18.243,14.189h-22.3C53.762,15.513,45.857,5.176,37.749,4.567a9.375,9.375,0,0,0-8.108,3.446l-7.3,7.3a4.3,4.3,0,0,0-1.014,4.054c1.014,4.054,7.3,7.905,19.054,11.757H21.533a7.182,7.182,0,0,0-7.095,7.095v7.905a7,7,0,0,0,5.473,6.892l7.095,63.243a11.372,11.372,0,0,0,11.149,10.135H96.127a11.207,11.207,0,0,0,11.149-10.135l7.095-63.04a7.36,7.36,0,0,0,5.473-6.892V38.419A7.226,7.226,0,0,0,112.749,31.121ZM81.33,21.594c2.635-3.851,9.73-12.365,15.405-12.77a5.553,5.553,0,0,1,4.865,2.23l7.095,7.095h0a.628.628,0,0,1-.2.405c-.608,1.216-4.459,5.878-27.365,11.959l.2-8.919ZM57.006,23.013h20.27v8.108H57.006ZM25.587,18.554a.628.628,0,0,1-.2-.405h0l7.3-7.3a5.367,5.367,0,0,1,4.865-2.027c5.878.405,12.77,8.919,15.405,12.77v8.919C30.046,24.432,26.2,19.973,25.587,18.554ZM58.019,122.337H38.154a7.424,7.424,0,0,1-7.3-6.486L23.965,53.419H58.019Zm0-72.973H21.533a3.117,3.117,0,0,1-3.041-3.041V38.419a3.163,3.163,0,0,1,3.041-3.243H58.019Zm14.189,72.973H62.073V53.419H72.208Zm0-72.973H62.073V35.175H72.208Zm31.216,66.486a7.274,7.274,0,0,1-7.3,6.486H76.262V53.419h34.054Zm12.365-69.527a3.117,3.117,0,0,1-3.041,3.041H76.262V35.175h36.284a3.117,3.117,0,0,1,3.041,3.041l.2,8.108Z" transform="translate(10 23)"/></g></svg>