<svg width="200" height="200" viewBox="0 0 200 200" fill="none" xmlns="http://www.w3.org/2000/svg">
<path d="M100 200C155.228 200 200 155.228 200 100C200 44.7715 155.228 0 100 0C44.7715 0 0 44.7715 0 100C0 155.228 44.7715 200 100 200Z" fill="white"/>
<path d="M100 199.5C154.952 199.5 199.5 154.952 199.5 100C199.5 45.0477 154.952 0.5 100 0.5C45.0477 0.5 0.5 45.0477 0.5 100C0.5 154.952 45.0477 199.5 100 199.5Z" stroke="#707070"/>
<path d="M119.367 137.099H95.8387L97.9248 135.013C98.0747 134.863 98.1936 134.685 98.2747 134.49C98.3559 134.294 98.3976 134.084 98.3976 133.872C98.3976 133.661 98.3559 133.451 98.2747 133.255C98.1936 133.06 98.0747 132.882 97.9248 132.732L78.5669 113.375C78.4173 113.225 78.2395 113.106 78.0438 113.025C77.8481 112.944 77.6383 112.902 77.4265 112.902H53.2306V109.676H50.0042V138.711H53.2306V135.485H67.1719L84.4704 149.636C84.7585 149.872 85.1194 150.001 85.4918 150.001H119.367C119.579 150.001 119.789 149.959 119.984 149.878C120.18 149.797 120.358 149.678 120.508 149.528C120.658 149.378 120.777 149.201 120.858 149.005C120.939 148.809 120.98 148.599 120.98 148.387V138.711C120.98 138.5 120.938 138.29 120.857 138.094C120.776 137.898 120.657 137.721 120.508 137.571C120.358 137.421 120.18 137.302 119.984 137.221C119.789 137.14 119.579 137.099 119.367 137.099V137.099ZM117.754 146.777H86.0678L68.7693 132.626C68.4813 132.39 68.1203 132.262 67.748 132.262H53.2306V116.129H76.7589L94.5027 133.872L90.3314 138.044L81.7933 129.507L79.5125 131.788L89.191 141.467C89.3408 141.616 89.5185 141.735 89.7142 141.816C89.9099 141.897 90.1196 141.939 90.3314 141.939C90.5432 141.939 90.753 141.897 90.9487 141.816C91.1443 141.735 91.3221 141.616 91.4718 141.467L92.6123 140.326H117.751L117.754 146.777Z" fill="black"/>
<path d="M146.79 122.877V106.45C146.79 100.46 144.411 94.716 140.176 90.4808C135.941 86.2455 130.196 83.8662 124.207 83.8662C118.217 83.8662 112.473 86.2455 108.238 90.4808C104.003 94.716 101.623 100.46 101.623 106.45V122.877C100.548 123.256 99.6407 124.003 99.0631 124.987C98.4856 125.97 98.2748 127.126 98.468 128.25C98.6613 129.374 99.2461 130.393 100.119 131.127C100.992 131.861 102.096 132.262 103.237 132.26H145.177C146.317 132.262 147.422 131.861 148.295 131.127C149.167 130.393 149.752 129.374 149.946 128.25C150.139 127.126 149.928 125.97 149.35 124.987C148.773 124.003 147.866 123.256 146.79 122.877V122.877ZM145.177 129.033H103.237C102.809 129.033 102.398 128.863 102.096 128.561C101.793 128.258 101.623 127.848 101.623 127.42C101.623 126.992 101.793 126.582 102.096 126.279C102.398 125.977 102.809 125.807 103.237 125.807H108.076V122.58H104.85V106.45C104.85 101.316 106.889 96.3924 110.519 92.7622C114.149 89.1321 119.073 87.0927 124.207 87.0927C129.341 87.0927 134.264 89.1321 137.894 92.7622C141.524 96.3924 143.564 101.316 143.564 106.45V122.58H140.337V125.807H145.177C145.605 125.807 146.015 125.977 146.318 126.279C146.62 126.582 146.79 126.992 146.79 127.42C146.79 127.848 146.62 128.258 146.318 128.561C146.015 128.863 145.605 129.033 145.177 129.033Z" fill="black"/>
<path d="M133.885 80.6398H129.761L133.782 69.9157C133.892 69.6229 133.914 69.3045 133.846 68.9993C133.778 68.6941 133.623 68.4153 133.399 68.1966C133.176 67.978 132.893 67.8289 132.587 67.7676C132.28 67.7064 131.962 67.7354 131.672 67.8513L124.207 70.8389L116.742 67.8513C116.451 67.7354 116.134 67.7064 115.827 67.7676C115.52 67.8289 115.238 67.978 115.015 68.1966C114.791 68.4153 114.636 68.6941 114.568 68.9993C114.5 69.3045 114.522 69.6229 114.632 69.9157L118.653 80.6414H114.528V83.8662H133.885V80.6398ZM122.098 80.6398L118.935 72.2032L123.608 74.0728C123.993 74.2277 124.422 74.2277 124.807 74.0728L129.48 72.2032L126.317 80.6398H122.098Z" fill="black"/>
<path d="M75.8132 101.61C80.7727 101.617 85.6275 100.184 89.7887 97.4853L99.3881 101.481C99.5845 101.564 99.7957 101.607 100.009 101.607C100.275 101.607 100.536 101.541 100.771 101.416C101.005 101.29 101.204 101.109 101.352 100.888C101.499 100.667 101.59 100.413 101.615 100.149C101.641 99.8842 101.601 99.6176 101.498 99.3724L97.5027 89.7729C100.607 84.9513 102.016 79.2331 101.509 73.5213C101.001 67.8094 98.6056 62.4293 94.7002 58.2305C90.7948 54.0316 85.6021 51.2531 79.9419 50.3338C74.2818 49.4145 68.4766 50.4067 63.4431 53.1537C58.4096 55.9008 54.4344 60.2461 52.1453 65.5038C49.8562 70.7614 49.3835 76.6317 50.8019 82.1879C52.2203 87.744 55.4489 92.6695 59.9781 96.1865C64.5073 99.7035 70.0789 101.612 75.8132 101.61V101.61ZM75.8132 53.2173C79.9381 53.2138 83.985 54.3409 87.5142 56.4762C91.0434 58.6114 93.9199 61.6731 95.831 65.3286C97.7422 68.984 98.6148 73.0933 98.3542 77.21C98.0936 81.3266 96.7097 85.2931 94.3528 88.6783C94.1982 88.901 94.102 89.1588 94.0729 89.4283C94.0438 89.6978 94.0828 89.9703 94.1863 90.2208L97.0165 97.0041L90.2332 94.1739C89.983 94.0689 89.7102 94.0291 89.4405 94.0582C89.1707 94.0873 88.9127 94.1844 88.6907 94.3404C85.7807 96.362 82.4358 97.6704 78.9265 98.1597C75.4171 98.649 71.8419 98.3054 68.4899 97.1569C65.138 96.0084 62.1033 94.0871 59.6315 91.5484C57.1597 89.0097 55.3201 85.9248 54.2614 82.5434C53.2028 79.162 52.9548 75.5788 53.5376 72.0838C54.1204 68.5888 55.5176 65.28 57.6162 62.425C59.7147 59.57 62.4558 57.249 65.6176 55.6498C68.7794 54.0505 72.2732 53.2178 75.8165 53.219L75.8132 53.2173Z" fill="black"/>
<path d="M67.7486 74.1864C69.0247 74.1862 70.272 73.8076 71.333 73.0985C72.3939 72.3894 73.2208 71.3816 73.709 70.2026C74.1972 69.0236 74.3248 67.7263 74.0756 66.4747C73.8265 65.2232 73.2119 64.0736 72.3094 63.1714C71.407 62.2692 70.2572 61.6548 69.0056 61.406C67.754 61.1572 66.4568 61.2852 65.2779 61.7737C64.099 62.2622 63.0914 63.0893 62.3826 64.1504C61.6737 65.2115 61.2955 66.459 61.2957 67.7351C61.2976 69.4458 61.9782 71.0858 63.188 72.2952C64.3977 73.5047 66.0379 74.1848 67.7486 74.1864ZM67.7486 64.5078C68.3866 64.508 69.0103 64.6974 69.5408 65.0519C70.0712 65.4065 70.4846 65.9104 70.7287 66.5C70.9728 67.0895 71.0367 67.7382 70.9121 68.3639C70.7876 68.9897 70.4803 69.5646 70.0292 70.0157C69.578 70.4669 69.0032 70.7742 68.3774 70.8987C67.7516 71.0232 67.1029 70.9594 66.5134 70.7153C65.9239 70.4712 65.42 70.0578 65.0654 69.5273C64.7108 68.9969 64.5214 68.3732 64.5213 67.7351C64.5219 66.8794 64.8622 66.0589 65.4673 65.4538C66.0723 64.8487 66.8928 64.5085 67.7486 64.5078V64.5078Z" fill="black"/>
<path d="M83.8793 77.4131C82.6032 77.4131 81.3558 77.7915 80.2947 78.5005C79.2337 79.2094 78.4067 80.2171 77.9184 81.3961C77.43 82.575 77.3023 83.8723 77.5512 85.1239C77.8002 86.3755 78.4147 87.5251 79.317 88.4275C80.2194 89.3298 81.369 89.9443 82.6206 90.1932C83.8722 90.4422 85.1695 90.3144 86.3484 89.8261C87.5274 89.3377 88.5351 88.5108 89.244 87.4497C89.953 86.3887 90.3314 85.1413 90.3314 83.8652C90.3296 82.1545 89.6493 80.5144 88.4397 79.3048C87.2301 78.0952 85.59 77.4148 83.8793 77.4131ZM83.8793 87.0916C83.2412 87.0916 82.6174 86.9024 82.0868 86.5478C81.5562 86.1933 81.1427 85.6894 80.8985 85.0999C80.6543 84.5103 80.5904 83.8616 80.7149 83.2357C80.8394 82.6098 81.1466 82.0349 81.5979 81.5837C82.0491 81.1325 82.624 80.8252 83.2499 80.7007C83.8757 80.5762 84.5245 80.6401 85.114 80.8843C85.7036 81.1285 86.2075 81.542 86.562 82.0726C86.9165 82.6032 87.1058 83.227 87.1058 83.8652C87.1049 84.7206 86.7647 85.5407 86.1598 86.1456C85.5549 86.7505 84.7348 87.0907 83.8793 87.0916V87.0916Z" fill="black"/>
<path d="M87.5765 61.7558L61.7678 87.5645L64.0493 89.8459L89.858 64.0372L87.5765 61.7558Z" fill="black"/>
<path d="M130.027 118.177C129.929 118.177 129.832 118.152 129.746 118.105C129.66 118.058 129.586 117.991 129.533 117.908L117.651 99.545V117.588C117.651 117.744 117.589 117.894 117.478 118.004C117.368 118.115 117.218 118.177 117.062 118.177C116.905 118.177 116.756 118.115 116.645 118.004C116.535 117.894 116.472 117.744 116.472 117.588V97.5488C116.473 97.4222 116.514 97.2991 116.59 97.1978C116.666 97.0966 116.773 97.0224 116.894 96.9865C117.016 96.9505 117.146 96.9546 117.264 96.9982C117.383 97.0418 117.485 97.1225 117.555 97.2283L129.436 115.591V96.9595C129.436 96.8032 129.499 96.6533 129.609 96.5427C129.72 96.4322 129.87 96.3701 130.026 96.3701C130.182 96.3701 130.332 96.4322 130.443 96.5427C130.553 96.6533 130.615 96.8032 130.615 96.9595V117.588C130.615 117.744 130.553 117.894 130.443 118.004C130.332 118.115 130.182 118.177 130.026 118.177H130.027Z" fill="black"/>
<path d="M133.564 106.39H113.525C113.369 106.39 113.219 106.328 113.108 106.217C112.998 106.107 112.936 105.957 112.936 105.8C112.936 105.644 112.998 105.494 113.108 105.384C113.219 105.273 113.369 105.211 113.525 105.211H133.564C133.72 105.211 133.87 105.273 133.98 105.384C134.091 105.494 134.153 105.644 134.153 105.8C134.153 105.957 134.091 106.107 133.98 106.217C133.87 106.328 133.72 106.39 133.564 106.39Z" fill="black"/>
<path d="M133.564 109.926H113.525C113.369 109.926 113.219 109.864 113.108 109.753C112.998 109.643 112.936 109.493 112.936 109.336C112.936 109.18 112.998 109.03 113.108 108.92C113.219 108.809 113.369 108.747 113.525 108.747H133.564C133.72 108.747 133.87 108.809 133.98 108.92C134.091 109.03 134.153 109.18 134.153 109.336C134.153 109.493 134.091 109.643 133.98 109.753C133.87 109.864 133.72 109.926 133.564 109.926Z" fill="black"/>
</svg>
