<svg width="200" height="200" viewBox="0 0 200 200" fill="none" xmlns="http://www.w3.org/2000/svg">
<path d="M100 200C155.228 200 200 155.228 200 100C200 44.7715 155.228 0 100 0C44.7715 0 0 44.7715 0 100C0 155.228 44.7715 200 100 200Z" fill="white"/>
<path d="M100 199.5C154.952 199.5 199.5 154.952 199.5 100C199.5 45.0477 154.952 0.5 100 0.5C45.0477 0.5 0.5 45.0477 0.5 100C0.5 154.952 45.0477 199.5 100 199.5Z" stroke="#DB6C36"/>
<path d="M141.816 101.783L130.051 122.159L129.288 119.31C129.233 119.105 129.139 118.913 129.01 118.745C128.881 118.577 128.72 118.436 128.537 118.33C128.353 118.224 128.151 118.155 127.941 118.128C127.731 118.1 127.517 118.114 127.313 118.169L100.87 125.255C100.665 125.31 100.473 125.404 100.305 125.533C100.137 125.662 99.9962 125.823 99.8904 126.006L87.7924 146.961L84.9982 145.347L83.385 148.142L108.531 162.659L110.144 159.865L107.35 158.252L114.32 146.178L135.225 138.273C135.573 138.142 135.865 137.893 136.051 137.571L152.989 108.234C153.095 108.051 153.164 107.848 153.191 107.638C153.219 107.428 153.205 107.214 153.15 107.01C153.095 106.805 153.001 106.613 152.872 106.445C152.743 106.277 152.582 106.136 152.398 106.03L144.019 101.192C143.835 101.086 143.633 101.018 143.423 100.99C143.213 100.962 142.999 100.976 142.795 101.031C142.59 101.086 142.398 101.181 142.23 101.31C142.062 101.439 141.921 101.6 141.816 101.783V101.783ZM149.391 108.02L133.548 135.46L112.643 143.366C112.295 143.497 112.003 143.745 111.817 144.068L104.558 156.64L90.5866 148.574L102.351 128.198L126.589 121.703L128.116 127.401L116.454 130.527L117.289 133.643L130.51 130.1C130.715 130.045 130.907 129.951 131.075 129.822C131.243 129.693 131.384 129.532 131.49 129.349C131.595 129.165 131.664 128.963 131.692 128.753C131.719 128.543 131.705 128.33 131.651 128.125L131.233 126.567L143.803 104.796L149.391 108.02Z" fill="#DB6C36"/>
<path d="M143.211 70.923L128.984 62.7091C123.797 59.7144 117.633 58.9028 111.847 60.453C106.062 62.0032 101.129 65.7882 98.1343 70.9753C95.1395 76.1623 94.328 82.3266 95.8782 88.112C97.4284 93.8975 101.213 98.8301 106.4 101.825L120.627 110.039C120.417 111.16 120.611 112.319 121.174 113.31C121.737 114.302 122.632 115.063 123.702 115.457C124.772 115.852 125.947 115.855 127.019 115.466C128.091 115.077 128.991 114.322 129.559 113.333L150.529 77.0112C151.102 76.0248 151.306 74.8677 151.107 73.7449C150.908 72.622 150.318 71.6059 149.441 70.8766C148.564 70.1473 147.458 69.7519 146.317 69.7604C145.177 69.7689 144.076 70.1807 143.211 70.923V70.923ZM147.735 75.398L126.765 111.72C126.551 112.09 126.199 112.36 125.785 112.471C125.372 112.582 124.932 112.524 124.561 112.31C124.191 112.096 123.92 111.744 123.81 111.33C123.699 110.917 123.757 110.477 123.971 110.106L126.391 105.915L123.596 104.302L121.983 107.096L108.014 99.0307C103.568 96.4638 100.323 92.2359 98.9947 87.277C97.666 82.3181 98.3616 77.0345 100.928 72.5885C103.495 68.1425 107.723 64.8983 112.682 63.5696C117.641 62.2408 122.925 62.9364 127.371 65.5033L141.34 73.5686L139.727 76.3628L142.521 77.976L144.941 73.7848C145.155 73.4142 145.507 73.1438 145.921 73.0331C146.334 72.9224 146.774 72.9803 147.145 73.1943C147.515 73.4082 147.786 73.7606 147.896 74.1738C148.007 74.5871 147.949 75.0274 147.735 75.398Z" fill="#DB6C36"/>
<path d="M100.18 60.981L98.1173 64.553L90.8407 55.7084C90.6419 55.4671 90.3772 55.2888 90.0789 55.1951C89.7806 55.1014 89.4615 55.0964 89.1604 55.1806C88.8593 55.2648 88.5891 55.4347 88.3828 55.6696C88.1764 55.9044 88.0426 56.1942 87.9978 56.5037L86.8526 64.4624L80.5327 69.4336C80.2871 69.6271 80.1031 69.8878 80.0028 70.184C79.9026 70.4802 79.8906 70.7991 79.9682 71.102C80.0458 71.4049 80.2097 71.6787 80.44 71.8902C80.6703 72.1017 80.9571 72.2417 81.2654 72.2933L92.5649 74.1735L90.5026 77.7455L93.2953 79.3579L102.974 62.5942L100.18 60.981ZM94.2861 71.1889L85.3983 69.71L89.354 66.5977C89.6804 66.3421 89.8952 65.9701 89.9533 65.5596L90.6708 60.5777L96.3955 67.5354L94.2861 71.1889Z" fill="#DB6C36"/>
<path d="M89.3045 121.758C91.79 117.466 92.9766 112.545 92.7202 107.592L100.98 101.277C101.151 101.148 101.293 100.987 101.4 100.802C101.532 100.572 101.606 100.312 101.615 100.047C101.624 99.7814 101.566 99.5179 101.449 99.2798C101.331 99.0417 101.156 98.8363 100.94 98.6819C100.724 98.5276 100.473 98.429 100.209 98.395L89.8981 97.0556C87.2744 91.9567 83.0271 87.8769 77.8267 85.4605C72.6264 83.044 66.7693 82.4286 61.1803 83.7113C55.5913 84.994 50.5887 88.1018 46.9625 92.544C43.3362 96.9862 41.2929 102.51 41.1551 108.242C41.0174 113.975 42.793 119.59 46.2017 124.202C49.6104 128.813 54.4579 132.157 59.9788 133.707C65.4998 135.257 71.3797 134.923 76.6901 132.76C82.0005 130.596 86.4389 126.725 89.3045 121.758V121.758ZM47.3953 97.5614C49.4547 93.9874 52.4542 91.0462 56.068 89.0574C59.6818 87.0687 63.7716 86.1084 67.8928 86.2811C72.0141 86.4537 76.0092 87.7526 79.444 90.0366C82.8788 92.3206 85.6219 95.5024 87.3752 99.2361C87.4907 99.4813 87.6659 99.6936 87.8848 99.8535C88.1036 100.013 88.3591 100.116 88.6278 100.152L95.9174 101.092L90.0747 105.552C89.8587 105.716 89.6878 105.932 89.5781 106.18C89.4684 106.428 89.4236 106.7 89.4477 106.971C89.7434 110.502 89.204 114.053 87.8731 117.336C86.5422 120.62 84.4571 123.545 81.7864 125.873C79.1158 128.202 75.9346 129.869 72.5001 130.741C69.0656 131.612 65.4743 131.663 62.0165 130.889C58.5588 130.115 55.3317 128.538 52.5964 126.286C49.861 124.034 47.6941 121.169 46.2709 117.924C44.8477 114.679 44.2081 111.145 44.404 107.607C44.5999 104.069 45.6257 100.627 47.3984 97.5593L47.3953 97.5614Z" fill="#DB6C36"/>
<path d="M61.5229 115.03C62.1608 113.924 62.4566 112.655 62.373 111.382C62.2894 110.108 61.83 108.888 61.053 107.876C60.2761 106.864 59.2164 106.105 58.0079 105.694C56.7995 105.284 55.4966 105.242 54.2641 105.572C53.0315 105.903 51.9246 106.591 51.0833 107.551C50.242 108.51 49.7042 109.698 49.5378 110.963C49.3714 112.228 49.5839 113.514 50.1485 114.659C50.713 115.803 51.6043 116.755 52.7095 117.392C54.1919 118.246 55.9525 118.477 57.6048 118.034C59.2571 117.591 60.6662 116.51 61.5229 115.03ZM53.141 110.19C53.4602 109.638 53.936 109.193 54.5083 108.91C55.0806 108.628 55.7237 108.522 56.3563 108.606C56.9889 108.689 57.5826 108.958 58.0623 109.379C58.542 109.799 58.8862 110.353 59.0513 110.969C59.2164 111.586 59.1951 112.237 58.9901 112.841C58.785 113.446 58.4054 113.975 57.8993 114.364C57.3931 114.752 56.7831 114.982 56.1464 115.024C55.5097 115.066 54.8749 114.918 54.3223 114.599C53.5815 114.171 53.0411 113.466 52.8196 112.639C52.5981 111.813 52.7137 110.932 53.141 110.19V110.19Z" fill="#DB6C36"/>
<path d="M72.3823 102.674C71.7442 103.779 71.4482 105.049 71.5317 106.322C71.6151 107.595 72.0743 108.815 72.8512 109.828C73.628 110.84 74.6876 111.6 75.896 112.01C77.1044 112.42 78.4072 112.463 79.6399 112.132C80.8725 111.802 81.9795 111.114 82.8209 110.154C83.6623 109.195 84.2002 108.007 84.3668 106.742C84.5334 105.477 84.321 104.191 83.7566 103.046C83.1922 101.902 82.3011 100.95 81.196 100.312C79.7136 99.4586 77.9531 99.2278 76.3007 99.6705C74.6484 100.113 73.2391 101.193 72.3823 102.674ZM80.7641 107.513C80.4451 108.066 79.9693 108.512 79.397 108.794C78.8246 109.076 78.1815 109.182 77.5488 109.099C76.9161 109.016 76.3224 108.747 75.8426 108.326C75.3628 107.905 75.0186 107.352 74.8534 106.735C74.6883 106.119 74.7096 105.467 74.9147 104.863C75.1198 104.259 75.4995 103.729 76.0058 103.34C76.5121 102.952 77.1222 102.722 77.7589 102.681C78.3957 102.639 79.0305 102.787 79.5832 103.106C80.3236 103.534 80.8637 104.239 81.0851 105.065C81.3065 105.892 81.1911 106.772 80.7641 107.513V107.513Z" fill="#DB6C36"/>
<path d="M60.6715 91.6431L70.1182 126.898L73.2347 126.063L63.788 90.808L60.6715 91.6431Z" fill="#DB6C36"/>
<path d="M130.759 83.0902C130.71 83.1753 130.641 83.2467 130.557 83.298C130.473 83.3494 130.378 83.3789 130.279 83.3839L108.436 84.4924L124.061 93.5137C124.196 93.5919 124.295 93.7206 124.336 93.8716C124.376 94.0226 124.355 94.1834 124.277 94.3188C124.198 94.4542 124.07 94.5529 123.919 94.5934C123.768 94.6339 123.607 94.6127 123.472 94.5345L106.117 84.5151C106.008 84.4513 105.922 84.3539 105.872 84.2375C105.823 84.121 105.812 83.9916 105.841 83.8685C105.871 83.7454 105.939 83.6351 106.037 83.5539C106.134 83.4727 106.255 83.4249 106.381 83.4177L128.225 82.3092L112.089 72.9932C111.954 72.9151 111.855 72.7864 111.815 72.6354C111.774 72.4844 111.795 72.3235 111.873 72.1882C111.952 72.0528 112.08 71.954 112.231 71.9136C112.382 71.8731 112.543 71.8943 112.678 71.9725L130.543 82.2865C130.678 82.3647 130.777 82.4934 130.818 82.6444C130.858 82.7954 130.837 82.9562 130.759 83.0916L130.759 83.0902Z" fill="#DB6C36"/>
<path d="M122.319 74.134L112.3 91.4881C112.221 91.6235 112.093 91.7223 111.942 91.7627C111.791 91.8032 111.63 91.782 111.495 91.7039C111.359 91.6257 111.26 91.497 111.22 91.346C111.179 91.195 111.201 91.0342 111.279 90.8988L121.298 73.5447C121.376 73.4093 121.505 73.3106 121.656 73.2701C121.807 73.2296 121.968 73.2508 122.103 73.329C122.239 73.4071 122.337 73.5359 122.378 73.6868C122.418 73.8378 122.397 73.9987 122.319 74.134Z" fill="#DB6C36"/>
<path d="M125.382 75.9026L115.363 93.2567C115.284 93.3921 115.156 93.4908 115.005 93.5313C114.854 93.5717 114.693 93.5506 114.558 93.4724C114.422 93.3943 114.323 93.2655 114.283 93.1146C114.242 92.9636 114.264 92.8027 114.342 92.6673L124.361 75.3132C124.439 75.1779 124.568 75.0791 124.719 75.0387C124.87 74.9982 125.031 75.0194 125.166 75.0975C125.302 75.1757 125.4 75.3044 125.441 75.4554C125.481 75.6064 125.46 75.7672 125.382 75.9026Z" fill="#DB6C36"/>
</svg>
