<svg width="22" height="30" viewBox="0 0 22 30" fill="none" xmlns="http://www.w3.org/2000/svg">
<path d="M8.15917 5.45508H13.5967V0H8.15917V5.45508V5.45508ZM16.3125 0V5.45508H21.75V0H16.3125ZM0 5.45508H5.4375V0H0V5.45508ZM8.15917 13.6348H13.5967V8.17969H8.15917V13.6348V13.6348ZM16.3125 13.6348H21.75V8.17969H16.3125V13.6348ZM0 13.6348H5.4375V8.17969H0V13.6348V13.6348ZM8.15917 21.8203H13.5967V16.3652H8.15917V21.8203V21.8203ZM16.3125 21.8203H21.75V16.3652H16.3125V21.8203ZM0 21.8203H5.4375V16.3652H0V21.8203V21.8203ZM8.15917 30H13.5967V24.5449H8.15917V30V30Z" fill="#DD7949"/>
</svg>
