<svg width="19" height="20" viewBox="0 0 19 20" fill="none" xmlns="http://www.w3.org/2000/svg">
<path d="M16.3636 9.19091V3.63636C16.3636 3.15415 16.1721 2.69169 15.8311 2.35071C15.4901 2.00974 15.0277 1.81818 14.5455 1.81818H10.7455C10.3636 0.763636 9.36364 0 8.18182 0C7 0 6 0.763636 5.61818 1.81818H1.81818C0.818182 1.81818 0 2.63636 0 3.63636V16.3636C0 16.8458 0.191558 17.3083 0.532533 17.6493C0.873508 17.9903 1.33597 18.1818 1.81818 18.1818H7.37273C8.51818 19.3091 10.0818 20 11.8182 20C15.3364 20 18.1818 17.1545 18.1818 13.6364C18.1818 11.9 17.4909 10.3364 16.3636 9.19091ZM8.18182 1.81818C8.68182 1.81818 9.09091 2.22727 9.09091 2.72727C9.09091 3.22727 8.68182 3.63636 8.18182 3.63636C7.68182 3.63636 7.27273 3.22727 7.27273 2.72727C7.27273 2.22727 7.68182 1.81818 8.18182 1.81818ZM1.81818 16.3636V3.63636H3.63636V5.45455H12.7273V3.63636H14.5455V7.89091C13.7182 7.5 12.8 7.27273 11.8182 7.27273H3.63636V9.09091H7.36364C6.81818 9.60909 6.4 10.2273 6.07273 10.9091H3.63636V12.7273H5.52727C5.48182 13.0273 5.45455 13.3273 5.45455 13.6364C5.45455 14.6182 5.68182 15.5364 6.07273 16.3636H1.81818ZM11.8182 18.1818C9.30909 18.1818 7.27273 16.1455 7.27273 13.6364C7.27273 11.1273 9.30909 9.09091 11.8182 9.09091C14.3273 9.09091 16.3636 11.1273 16.3636 13.6364C16.3636 16.1455 14.3273 18.1818 11.8182 18.1818ZM12.2727 13.8636L14.8727 15.4L14.1909 16.5091L10.9091 14.5455V10H12.2727V13.8636Z" fill="black"/>
</svg>
