<svg width="24" height="20" viewBox="0 0 24 20" fill="none" xmlns="http://www.w3.org/2000/svg">
<path d="M12.0095 0.164212C11.873 0.0577932 11.7049 0 11.5318 0C11.3587 0 11.1906 0.0577932 11.0541 0.164212L0 8.78362L0.956173 9.99287L2.30774 8.93901V18.4615C2.30855 18.8693 2.4709 19.2601 2.75925 19.5485C3.0476 19.8368 3.43845 19.9992 3.84623 20H19.2312C19.6389 19.9992 20.0298 19.8368 20.3181 19.5485C20.6065 19.2601 20.7688 18.8693 20.7697 18.4615V8.94593L22.1212 9.9998L23.0774 8.79054L12.0095 0.164212ZM13.0772 18.4615H10.0002V12.3075H13.0772V18.4615ZM14.6157 18.4615V12.3075C14.6153 11.8996 14.4531 11.5085 14.1646 11.2201C13.8762 10.9317 13.4851 10.7695 13.0772 10.769H10.0002C9.5923 10.7695 9.20121 10.9317 8.91278 11.2201C8.62434 11.5085 8.46212 11.8996 8.46171 12.3075V18.4615H3.84623V7.73975L11.5387 1.74732L19.2312 7.74744V18.4615H14.6157Z" fill="currentColor"/>
</svg>
