<svg width="17" height="20" viewBox="0 0 17 20" fill="none" xmlns="http://www.w3.org/2000/svg">
<path d="M8.42106 20C13.0642 20 16.8421 16.2221 16.8421 11.579C16.8421 8.05263 14.6611 5.03053 11.579 3.77789V6.11789C12.5378 6.67149 13.3343 7.46743 13.8886 8.42592C14.4428 9.3844 14.7353 10.4718 14.7369 11.579C14.7369 15.0621 11.9042 17.8947 8.42106 17.8947C4.9379 17.8947 2.10526 15.0621 2.10526 11.579C2.10666 10.4717 2.39916 9.38434 2.95342 8.42584C3.50769 7.46733 4.30423 6.67141 5.26316 6.11789V3.77789C2.18105 5.03053 0 8.05263 0 11.579C0 16.2221 3.7779 20 8.42106 20Z" fill="currentColor"/>
<path d="M7.36844 0H9.4737V10.5263H7.36844V0Z" fill="currentColor"/>
</svg>
